<?xml version="1.0" encoding="utf-8"?>
<!-- Generator: Adobe Illustrator 16.0.0, SVG Export Plug-In . SVG Version: 6.00 Build 0)  -->
<!DOCTYPE svg PUBLIC "-//W3C//DTD SVG 1.1//EN" "http://www.w3.org/Graphics/SVG/1.1/DTD/svg11.dtd">
<svg version="1.1" id="Layer_1" xmlns="http://www.w3.org/2000/svg" xmlns:xlink="http://www.w3.org/1999/xlink" x="0px" y="0px"
	 width="334px" height="334px" viewBox="-21.863 -23.763 334 334" enable-background="new -21.863 -23.763 334 334"
	 xml:space="preserve">
<g>
	<circle fill="#FFFFFF" cx="145.137" cy="143.237" r="165.993"/>
	<path fill="#010202" d="M254.513,174.417v27.346c0,15.1-12.242,27.344-27.344,27.344c-7.558,0-13.672-6.115-13.672-13.672v-82.033
		c0-37.758-30.602-68.36-68.36-68.36c-37.752,0-68.359,30.602-68.359,68.36v82.033c0,7.557-6.114,13.672-13.672,13.672
		c-15.102,0-27.345-12.244-27.345-27.344v-27.346c0-15.1,12.243-27.344,27.345-27.344v-13.672c0-45.301,36.73-82.032,82.031-82.032
		c45.302,0,82.032,36.731,82.032,82.032v13.672C242.271,147.073,254.513,159.317,254.513,174.417z"/>
</g>
</svg>
