<?xml version="1.0" encoding="utf-8"?>
<!-- Generator: Adobe Illustrator 16.0.0, SVG Export Plug-In . SVG Version: 6.00 Build 0)  -->
<!DOCTYPE svg PUBLIC "-//W3C//DTD SVG 1.1//EN" "http://www.w3.org/Graphics/SVG/1.1/DTD/svg11.dtd">
<svg version="1.1" id="Layer_1" xmlns="http://www.w3.org/2000/svg" xmlns:xlink="http://www.w3.org/1999/xlink" x="0px" y="0px"
	 width="334px" height="334px" viewBox="-21.863 -23.763 334 334" enable-background="new -21.863 -23.763 334 334"
	 xml:space="preserve">
<g>
	<circle fill="#FFFFFF" cx="145.137" cy="143.237" r="165.993"/>
	<g id="Your_Icon">
		<g>
			<path fill="#010202" d="M236.823,208.6l-35.012-35.016c9.51-13.699,15.105-30.334,15.105-48.245
				c0-46.795-38.082-84.859-84.873-84.859c-46.793,0-84.859,38.064-84.859,84.859c0,46.803,38.066,84.866,84.859,84.866
				c12.896,0,25.119-2.896,36.076-8.066l37.584,37.59c4.053,4.039,9.459,6.264,15.217,6.264c5.896,0,11.461-2.316,15.664-6.512
				C245.163,230.901,245.269,217.038,236.823,208.6z M81.128,125.34c0-28.074,22.844-50.922,50.916-50.922
				c28.078,0,50.922,22.848,50.922,50.922c0,28.081-22.844,50.928-50.922,50.928C103.972,176.268,81.128,153.42,81.128,125.34z"/>
		</g>
	</g>
</g>
</svg>
