<?xml version="1.0" encoding="utf-8"?>
<!-- Generator: Adobe Illustrator 16.0.0, SVG Export Plug-In . SVG Version: 6.00 Build 0)  -->
<!DOCTYPE svg PUBLIC "-//W3C//DTD SVG 1.1//EN" "http://www.w3.org/Graphics/SVG/1.1/DTD/svg11.dtd">
<svg version="1.1" id="Layer_1" xmlns="http://www.w3.org/2000/svg" xmlns:xlink="http://www.w3.org/1999/xlink" x="0px" y="0px"
	 width="334px" height="334px" viewBox="-21.863 -23.763 334 334" enable-background="new -21.863 -23.763 334 334"
	 xml:space="preserve">
<g>
	<circle fill="#FFFFFF" cx="145.137" cy="143.237" r="165.994"/>
	<g id="Your_Icon_1_">
		<g>
			<path fill="#010202" d="M262.166,134.264c1.432,3.109,2.152,6.219,2.152,9.092c0,2.633-0.721,5.982-2.152,8.852
				c-0.721,1.436-41.164,75.391-117.031,75.391c-75.865,0-116.312-73.955-117.025-75.389c-1.44-2.869-2.154-6.221-2.154-8.852
				c0-2.873,0.717-5.982,2.154-9.094c0.713-1.195,41.16-75.389,117.027-75.389C221.002,58.872,261.445,133.064,262.166,134.264z
				 M233.684,146.227c0.482-0.721,0.719-1.195,0.719-1.678c0-0.717-0.236-1.193-0.719-2.152
				c-12.682-16.272-40.924-54.325-88.549-54.325c-47.629,0-75.865,38.049-88.549,54.325c-0.479,0.958-0.721,1.439-0.721,2.152
				c0,0.482,0.241,0.957,0.721,1.678c12.684,16.516,40.927,54.328,88.549,54.328C192.762,200.555,221.002,162.743,233.684,146.227z
				 M192.041,144.555c0-27.046-21.299-47.627-46.906-47.627c-25.608,0-46.909,20.581-46.909,47.627
				c0,26.328,21.301,47.627,46.909,47.627C170.742,192.182,192.041,170.883,192.041,144.555z M170.026,144.555
				c0,13.877-11.968,25.125-24.89,25.125c-13.164,0-24.883-11.248-24.883-25.125c0-14.36,11.719-25.847,24.883-25.847
				C158.059,118.708,170.026,130.192,170.026,144.555z"/>
		</g>
	</g>
</g>
</svg>
