<?xml version="1.0" encoding="utf-8"?>
<!-- Generator: Adobe Illustrator 16.0.0, SVG Export Plug-In . SVG Version: 6.00 Build 0)  -->
<!DOCTYPE svg PUBLIC "-//W3C//DTD SVG 1.1//EN" "http://www.w3.org/Graphics/SVG/1.1/DTD/svg11.dtd">
<svg version="1.1" id="Layer_1" xmlns="http://www.w3.org/2000/svg" xmlns:xlink="http://www.w3.org/1999/xlink" x="0px" y="0px"
	 width="334px" height="334px" viewBox="-21.863 -23.763 334 334" enable-background="new -21.863 -23.763 334 334"
	 xml:space="preserve">
<g>
	<circle fill="#FFFFFF" cx="145.137" cy="143.237" r="165.994"/>
	<g>
		<path fill="#010202" d="M128.895,239.002c4.305,4.309,10.152,6.732,16.24,6.732s11.934-2.424,16.24-6.732l82.256-82.262
			c8.977-8.973,8.977-23.516,0-32.482c-8.971-8.974-23.508-8.974-32.479,0l-43.041,43.046V63.709
			c0-12.689-10.291-22.971-22.973-22.971c-12.684,0-22.977,10.277-22.977,22.971v103.596l-43.043-43.046
			c-8.971-8.974-23.508-8.974-32.48,0c-8.971,8.966-8.971,23.509,0,32.482L128.895,239.002z"/>
	</g>
</g>
</svg>
