<?xml version="1.0" encoding="utf-8"?>
<!-- Generator: Adobe Illustrator 16.0.0, SVG Export Plug-In . SVG Version: 6.00 Build 0)  -->
<!DOCTYPE svg PUBLIC "-//W3C//DTD SVG 1.1//EN" "http://www.w3.org/Graphics/SVG/1.1/DTD/svg11.dtd">
<svg version="1.1" id="Layer_1" xmlns="http://www.w3.org/2000/svg" xmlns:xlink="http://www.w3.org/1999/xlink" x="0px" y="0px"
	 width="290px" height="285.45px" viewBox="-3.268 -3.216 290 285.45" enable-background="new -3.268 -3.216 290 285.45"
	 xml:space="preserve">
<g>
	<path fill="#FFFFFF" d="M283.465,247.226c0,18.787-15.229,34.016-34.016,34.016H34.016C15.229,281.241,0,266.013,0,247.226V31.793
		C0,13.007,15.229-2.222,34.016-2.222h215.434c18.786,0,34.016,15.229,34.016,34.016V247.226z"/>
	<g>
		<g>
			<path fill="#DE2626" d="M141.461,229.064c-48.929,0-88.734-39.807-88.734-88.736c0-48.923,39.806-88.734,88.734-88.734
				c48.927,0,88.731,39.807,88.731,88.734S190.388,229.064,141.461,229.064z M141.461,69.954c-38.806,0-70.376,31.571-70.376,70.373
				c0,38.807,31.57,70.377,70.376,70.377c38.802,0,70.373-31.57,70.373-70.377C211.834,101.526,180.263,69.954,141.461,69.954z"/>
		</g>
		<path fill="#DE2626" d="M141.461,130.003c5.703,0,10.326,4.621,10.326,10.324c0,5.707-4.623,10.33-10.326,10.33
			c-5.705,0-10.328-4.623-10.328-10.33C131.133,134.624,135.756,130.003,141.461,130.003z"/>
		<g>
			
				<rect x="84.904" y="208.367" transform="matrix(-0.9388 -0.3444 0.3444 -0.9388 99.9076 462.3982)" fill="#DE2626" width="12.238" height="27.916"/>
		</g>
		<g>
			
				<rect x="177.928" y="216.201" transform="matrix(-0.3445 -0.9388 0.9388 -0.3445 49.2888 479.0552)" fill="#DE2626" width="27.916" height="12.239"/>
		</g>
		<path fill="#DE2626" d="M46.63,96.624C33.903,84.28,33.597,63.955,45.942,51.23c12.347-12.722,32.675-13.03,45.396-0.682
			L46.63,96.624z"/>
		<path fill="#DE2626" d="M236.838,96.624c12.726-12.345,13.027-32.669,0.682-45.395c-12.348-12.722-32.669-13.03-45.393-0.682
			L236.838,96.624z"/>
		<g>
			<rect x="135.34" y="88.25" fill="#DE2626" width="12.239" height="52.077"/>
		</g>
		<g>
			
				<rect x="133.292" y="151.259" transform="matrix(-0.6266 -0.7794 0.7794 -0.6266 129.7485 376.9198)" fill="#DE2626" width="43.761" height="12.235"/>
		</g>
	</g>
</g>
</svg>
