<?xml version="1.0" encoding="utf-8"?>
<!-- Generator: Adobe Illustrator 16.0.0, SVG Export Plug-In . SVG Version: 6.00 Build 0)  -->
<!DOCTYPE svg PUBLIC "-//W3C//DTD SVG 1.1//EN" "http://www.w3.org/Graphics/SVG/1.1/DTD/svg11.dtd">
<svg version="1.1" id="Layer_1" xmlns="http://www.w3.org/2000/svg" xmlns:xlink="http://www.w3.org/1999/xlink" x="0px" y="0px"
	 width="290px" height="285.45px" viewBox="-3.268 -3.216 290 285.45" enable-background="new -3.268 -3.216 290 285.45"
	 xml:space="preserve">
<g>
	<path fill="#FFFFFF" d="M283.465,247.227c0,18.785-15.229,34.016-34.016,34.016H34.016C15.229,281.242,0,266.012,0,247.227V31.792
		C0,13.006,15.229-2.223,34.016-2.223h215.434c18.786,0,34.016,15.229,34.016,34.016V247.227z"/>
	<g>
		<path fill="#789F33" d="M224.841,61.14H58.613c-3.937,0-7.124,3.187-7.124,7.125v2.369v97.378c0,3.928,3.188,7.125,7.124,7.125
			h2.379h161.492h2.352c3.932,0,7.129-3.197,7.129-7.125V70.634v-2.369C231.965,64.326,228.789,61.14,224.841,61.14z
			 M222.484,165.621H60.992V70.634h161.492V165.621z"/>
		<path fill="#789F33" d="M232.221,179.914c-1.434-1.322-4.222-2.408-6.174-2.408H57.42c-1.957,0-4.73,1.086-6.163,2.408
			l-28.266,26.078v4.756c0,0,0,7.129,7.124,7.129h223.229c7.129,0,7.129-7.129,7.129-7.129v-4.756L232.221,179.914z
			 M110.527,195.008h62.403l4.812,7.754h-72.027L110.527,195.008z M158.35,208.383c0,1.303-1.064,2.365-2.369,2.365h-28.497
			c-1.315,0-2.371-1.062-2.371-2.365v-2.391h33.234v2.391H158.35z"/>
	</g>
</g>
</svg>
