<?xml version="1.0" encoding="utf-8"?>
<!-- Generator: Adobe Illustrator 16.0.0, SVG Export Plug-In . SVG Version: 6.00 Build 0)  -->
<!DOCTYPE svg PUBLIC "-//W3C//DTD SVG 1.1//EN" "http://www.w3.org/Graphics/SVG/1.1/DTD/svg11.dtd">
<svg version="1.1" id="Layer_1" xmlns="http://www.w3.org/2000/svg" xmlns:xlink="http://www.w3.org/1999/xlink" x="0px" y="0px"
	 width="290px" height="285.45px" viewBox="-3.268 -3.216 290 285.45" enable-background="new -3.268 -3.216 290 285.45"
	 xml:space="preserve">
<g>
	<path fill="#FFFFFF" d="M283.465,247.226c0,18.787-15.229,34.016-34.016,34.016H34.016C15.229,281.241,0,266.013,0,247.226V31.793
		C0,13.007,15.229-2.223,34.016-2.223h215.434c18.786,0,34.016,15.229,34.016,34.016V247.226z"/>
	<g>
		<path fill="#27497E" d="M103.451,174.265h13.367l1.857-10.209c0.28-1.436,0.274-3.34,0.957-4.643
			c0.96-1.828,3.493-4.018,5.167-5.197c1.98,6.924,6.376,13.125,8.356,20.049h15.224l-3.852-8.168l-5.663-11.881l-2.595-5.385
			c-0.276-0.588-0.908-1.561-0.764-2.229c0.376-1.727,3.652-3.963,4.89-5.197l10.21-10.211c1.399-1.399,3.616-2.841,4.457-4.642
			h-11.512c-1.401,0-3.662-0.434-4.959,0.113c-1.742,0.731-3.448,3.832-4.648,5.271l-7.881,9.468
			c-1.35,1.682-2.559,3.836-4.232,5.197c2.277-8.808,3.496-17.995,5.281-26.919c1.028-5.143,2.845-10.731,3.073-15.966h-9.654
			c-0.865,0-2.875-0.372-3.576,0.192c-0.854,0.685-0.895,3.588-1.081,4.635l-2.445,12.811l-6.785,35.644
			C105.59,162.558,103.567,168.609,103.451,174.265z"/>
		<path fill="#789F33" d="M182.909,126.552h-5.567l-1.486,6.684h5.756c-1.799,6.951-2.479,14.294-3.8,21.349
			c-1.189,6.367-3.16,13.217-3.441,19.68h7.798l5.084-28.961c0.668-3.574,0.706-7.921,1.998-11.314
			c0.353-0.928,1.384-0.754,2.2-0.754h6.497c0.64,0,2.191-0.279,2.54,0.432c0.336,0.676-0.194,2.003-0.282,2.725l-1.434,7.984
			l-3.692,20.049c-0.642,3.223-1.704,6.74-1.772,10.025h7.611c0.399-5.002,1.777-10.104,2.7-15.037
			c1.348-7.203,2.048-14.42,6.708-20.421c3.032-3.91,10.944-9.848,15.079-3.711c2.518,3.734,1.24,8.728,0.476,12.808l-2.869,15.408
			c-0.727,3.58-1.753,7.311-2.042,10.953h7.611c0.183-4.291,1.538-8.773,2.328-12.996c1.418-7.584,1.913-16.094,6.749-22.462
			c3.104-4.088,10.714-9.58,15.145-3.898c2.773,3.557,1.556,9.349,0.634,13.367c-1.944,8.455-3.711,17.387-4.805,25.99h7.612
			l4.871-25.805c0.873-5.008,2.083-10.417,0.471-15.41c-1.558-4.82-6.745-7.619-11.654-6.975
			c-6.175,0.811-12.782,4.039-15.41,10.131c-0.75-2.369-0.833-4.643-2.468-6.68c-5.167-6.444-15.37-3.199-20.554,1.35l-4.083,4.773
			l1.114-9.283h-17.824c0.76-5.972,3.175-14.438,10.211-15.355c1.9-0.246,3.585,0.449,5.385,0.875l1.671-6.312
			c-1.924-1.083-4.164-1.113-6.312-1.113C190.175,104.646,183.373,115.941,182.909,126.552z"/>
		<path fill="#27497E" d="M69.849,162.013l-2.291,7.055c-0.233,0.701-0.972,2.018-0.534,2.725c1.188,1.922,5.806,2.59,7.837,2.992
			c8.265,1.641,19.72,0.34,24.676-7.389c4.537-7.074,2.359-15.264-4.44-19.799c-2.625-1.75-9.463-3.83-9.06-7.863
			c0.514-5.123,8.476-3.79,11.66-2.989c0.862,0.217,2.429,1.226,3.29,0.981c0.725-0.203,0.959-1.83,1.165-2.447l2.414-7.24
			c-10.814-4.437-29.5-3.202-31.918,11.139c-0.301,1.785-0.387,3.798,0.029,5.57c0.947,4.029,4.098,7.002,7.567,9.018
			c2.399,1.395,5.295,2.502,6.897,4.904c1.48,2.225,0.271,4.928-2.071,5.924c-2.493,1.059-5.441,0.566-7.981-0.07L69.849,162.013z"
			/>
		<path fill="#27497E" d="M46.643,126.419c-14.776,2.282-24.449,15.522-25.452,29.838c-0.232,3.324-0.14,6.645,0.959,9.84
			c3.023,8.779,13.168,11.805,20.965,7.156c3.53-2.104,5.116-5.234,7.611-8.27c0,3.053-0.36,6.256-0.743,9.281h12.626
			c0-9.959,1.594-19.541,3.295-29.332c0.971-5.595,1.659-11.384,3.016-16.894C61.594,125.961,54.188,125.254,46.643,126.419z
			 M51.677,148.831c-0.584,2.609-1.278,5.168-2.379,7.611c-1.261,2.799-2.932,5.707-5.626,7.34
			c-2.484,1.504-5.563,1.232-7.152-1.398c-1.207-1.998-1.202-4.434-1.202-6.684c0-6.762,3.564-15.127,9.839-18.31
			c2.973-1.508,5.596-1.031,8.725-0.626C53.567,140.741,52.543,144.937,51.677,148.831z"/>
		<path fill="#789F33" d="M161.188,161.72c-5.619,0.766-8.409,9.131-2.783,12.074c1.212,0.633,2.935,0.598,4.27,0.436
			C170.343,173.3,169.219,160.628,161.188,161.72z"/>
	</g>
</g>
</svg>
