<?xml version="1.0" encoding="utf-8"?>
<!-- Generator: Adobe Illustrator 16.0.0, SVG Export Plug-In . SVG Version: 6.00 Build 0)  -->
<!DOCTYPE svg PUBLIC "-//W3C//DTD SVG 1.1//EN" "http://www.w3.org/Graphics/SVG/1.1/DTD/svg11.dtd">
<svg version="1.1" id="Layer_1" xmlns="http://www.w3.org/2000/svg" xmlns:xlink="http://www.w3.org/1999/xlink" x="0px" y="0px"
	 width="290px" height="285.45px" viewBox="-3.268 -3.216 290 285.45" enable-background="new -3.268 -3.216 290 285.45"
	 xml:space="preserve">
<g>
	<path fill-rule="evenodd" clip-rule="evenodd" fill="#DE2626" d="M39.961-2.482h203.543c21.982,0,39.961,17.979,39.961,39.951
		V241.55c0,21.973-17.979,39.951-39.961,39.951H39.961C17.979,281.501,0,263.523,0,241.55V37.469
		C0,15.497,17.979-2.482,39.961-2.482L39.961-2.482z"/>
	<path fill-rule="evenodd" clip-rule="evenodd" fill="#FFFFFF" d="M110.77,51.786h23.584h6.719
		c30.293,0,55.225,24.111,56.553,54.092l0.068,0.01c-0.02,0.293-0.029,0.586-0.039,0.879c0.02,0.537,0.029,1.084,0.029,1.621v0.02
		c0.312,5.713,3.086,8.984,8.682,9.434c4.619,0,9.238,0,13.857,0c5.586,0.166,8.838,2.373,9.6,6.738v4.639
		c-0.029,0.186-0.049,0.381-0.088,0.576l-0.098,17.872l0.186-0.068v23.037c0,31.133-25.469,56.6-56.602,56.6h-32.148H110.77
		c-0.479,0-0.967,0-1.445-0.02c-0.488-0.01-0.977-0.029-1.445-0.049c-0.488-0.029-0.967-0.059-1.445-0.098s-0.957-0.078-1.426-0.127
		c-0.479-0.049-0.947-0.098-1.416-0.166c-0.469-0.059-0.938-0.117-1.406-0.195c-0.469-0.068-0.938-0.146-1.396-0.234
		c-0.469-0.078-0.928-0.166-1.387-0.264l0,0c-0.459-0.098-0.918-0.195-1.367-0.303c-0.459-0.107-0.918-0.215-1.367-0.332l0,0
		c-0.449-0.117-0.896-0.234-1.346-0.371c-0.449-0.127-0.889-0.254-1.328-0.391c-0.449-0.146-0.889-0.283-1.328-0.439l0,0
		c-0.43-0.146-0.869-0.303-1.299-0.459c-0.439-0.156-0.869-0.322-1.299-0.488l0,0c-0.42-0.176-0.85-0.352-1.27-0.527l0,0
		c-0.43-0.186-0.84-0.361-1.26-0.557c-0.42-0.186-0.84-0.381-1.25-0.576c-0.41-0.205-0.82-0.41-1.221-0.615
		c-0.41-0.215-0.82-0.43-1.211-0.645c-0.41-0.215-0.801-0.439-1.201-0.674c-0.391-0.225-0.791-0.459-1.172-0.693
		c-0.391-0.234-0.781-0.479-1.162-0.723l0,0c-0.381-0.244-0.762-0.498-1.143-0.752c-0.371-0.254-0.742-0.518-1.113-0.781l0,0
		c-0.371-0.264-0.742-0.527-1.104-0.801l0,0c-0.361-0.271-0.723-0.545-1.084-0.828c-0.352-0.283-0.713-0.566-1.055-0.859
		c-0.352-0.283-0.693-0.576-1.045-0.879l0,0c-0.332-0.293-0.674-0.596-1.016-0.898l0,0c-0.332-0.303-0.664-0.615-0.996-0.928l0,0
		c-0.322-0.312-0.645-0.635-0.967-0.957c-0.322-0.312-0.635-0.645-0.957-0.967c-0.312-0.332-0.615-0.664-0.928-0.996
		c-0.303-0.332-0.605-0.674-0.898-1.016l0,0c-0.293-0.342-0.586-0.693-0.879-1.045l0,0c-0.293-0.342-0.576-0.703-0.859-1.055
		c-0.273-0.361-0.557-0.723-0.82-1.084c-0.273-0.361-0.547-0.732-0.811-1.104s-0.518-0.742-0.771-1.113
		c-0.264-0.381-0.508-0.762-0.762-1.143l0,0c-0.244-0.381-0.488-0.771-0.723-1.162l0,0c-0.234-0.381-0.469-0.781-0.693-1.172
		s-0.449-0.791-0.674-1.191c-0.215-0.4-0.43-0.811-0.645-1.211c-0.205-0.41-0.41-0.82-0.605-1.23s-0.391-0.83-0.586-1.25
		c-0.186-0.41-0.371-0.83-0.557-1.25l0,0c-0.176-0.43-0.352-0.859-0.518-1.279c-0.176-0.43-0.332-0.859-0.498-1.299
		c-0.156-0.43-0.312-0.859-0.459-1.299s-0.293-0.879-0.43-1.318c-0.137-0.449-0.273-0.889-0.4-1.338s-0.254-0.898-0.371-1.348
		s-0.225-0.908-0.332-1.357c-0.107-0.459-0.205-0.918-0.303-1.377s-0.176-0.918-0.264-1.387c-0.088-0.459-0.166-0.928-0.234-1.396
		c-0.068-0.459-0.137-0.938-0.195-1.406c-0.068-0.469-0.117-0.938-0.166-1.416s-0.088-0.947-0.127-1.426s-0.068-0.957-0.088-1.436
		c-0.029-0.479-0.049-0.967-0.059-1.445c-0.02-0.488-0.02-0.977-0.02-1.455v-62.247C54.17,77.255,79.639,51.786,110.77,51.786
		L110.77,51.786z M110.643,97.626h31.084c5.518,0,10.02,4.502,10.02,10.01l0,0c0,5.508-4.502,10.01-10.02,10.01h-31.084
		c-5.498,0-10.01-4.502-10.01-10.01l0,0C100.633,102.128,105.145,97.626,110.643,97.626L110.643,97.626z M110.643,161.22h63.76
		c5.508,0,10.01,4.502,10.01,10.01l0,0c0,5.508-4.502,10.01-10.01,10.01h-63.76c-5.498,0-10.01-4.502-10.01-10.01l0,0
		C100.633,165.722,105.145,161.22,110.643,161.22L110.643,161.22z"/>
</g>
</svg>
