<?xml version="1.0" encoding="utf-8"?>
<!-- Generator: Adobe Illustrator 16.0.0, SVG Export Plug-In . SVG Version: 6.00 Build 0)  -->
<!DOCTYPE svg PUBLIC "-//W3C//DTD SVG 1.1//EN" "http://www.w3.org/Graphics/SVG/1.1/DTD/svg11.dtd">
<svg version="1.1" id="Layer_1" xmlns="http://www.w3.org/2000/svg" xmlns:xlink="http://www.w3.org/1999/xlink" x="0px" y="0px"
	 width="290px" height="285.45px" viewBox="-3.268 -3.216 290 285.45" enable-background="new -3.268 -3.216 290 285.45"
	 xml:space="preserve">
<g>
	<path fill="#FFC917" d="M283.233,245.421c0,19.656-15.935,35.589-35.59,35.589H35.82c-19.654,0-35.588-15.933-35.588-35.589V33.599
		C0.231,13.944,16.166-1.99,35.82-1.99h211.824c19.655,0,35.59,15.934,35.59,35.589V245.421z"/>
	<path fill="#27497E" d="M0.231,138.831v106.59c0,19.656,15.934,35.589,35.588,35.589h211.824c19.655,0,35.59-15.933,35.59-35.589
		v-106.59H0.231z"/>
	<path fill="#FFFFFF" d="M176.162,63.572c-13.678-6.131-24.525-4.244-24.525-4.244H55.889c-0.47,12.264-0.037,9.904,4.244,13.678
		c1.806,1.588,12.735,12.422,12.735,12.422s-0.378,112.108,0.158,123.89c0.473,10.378,11.163,9.256,11.163,9.256
		s59.901,0.176,74.051-0.294c14.151-0.472,27.83-7.074,39.621-15.566c11.79-8.488,31.601-24.526,31.601-68.862
		C229.461,89.514,189.842,69.704,176.162,63.572z M169.087,181.959c-10.374,11.319-25.783,15.722-41.819,16.354
		c-16.039,0.628-13.835-13.522-13.835-13.522V94.546c0,0,0,0-0.104-7.232c-0.1-7.233,10.165-7.863,10.165-7.863
		s3.457,0.203,14.151,0c7.39-0.14,20.086,5.176,32.388,16.667c12.499,11.674,18.865,28.562,18.867,43.393
		C188.899,157.589,179.466,170.64,169.087,181.959z"/>
</g>
</svg>
