<?xml version="1.0" encoding="utf-8"?>
<!-- Generator: Adobe Illustrator 16.0.0, SVG Export Plug-In . SVG Version: 6.00 Build 0)  -->
<!DOCTYPE svg PUBLIC "-//W3C//DTD SVG 1.1//EN" "http://www.w3.org/Graphics/SVG/1.1/DTD/svg11.dtd">
<svg version="1.1" id="Layer_1" xmlns="http://www.w3.org/2000/svg" xmlns:xlink="http://www.w3.org/1999/xlink" x="0px" y="0px"
	 width="290px" height="285.45px" viewBox="-3.268 -3.216 290 285.45" enable-background="new -3.268 -3.216 290 285.45"
	 xml:space="preserve">
<g>
	<circle fill="#BDBCBB" cx="141.732" cy="139.509" r="141.732"/>
	<g>
		<path fill="#2D211A" d="M221.82,102.687c-15.109,0-27.359,13.265-27.359,29.622c0,16.36,12.25,29.624,27.359,29.624
			c15.111,0,27.359-13.264,27.359-29.624C249.18,115.951,236.932,102.687,221.82,102.687z M216.061,141.156
			c-3.977,0-7.201-3.224-7.201-7.202c0-3.976,3.225-7.198,7.201-7.198s7.199,3.223,7.199,7.198
			C223.26,137.932,220.037,141.156,216.061,141.156z"/>
		<path fill="#2D211A" d="M32.361,132.309c0,16.36,12.25,29.624,27.359,29.624c15.111,0,27.359-13.264,27.359-29.624
			c0-16.357-12.248-29.622-27.359-29.622C44.611,102.687,32.361,115.951,32.361,132.309z M58.281,133.953
			c0-3.976,3.225-7.198,7.199-7.198c3.977,0,7.201,3.223,7.201,7.198c0,3.979-3.225,7.202-7.201,7.202
			C61.506,141.156,58.281,137.932,58.281,133.953z"/>
		<path fill="#2D211A" d="M220.379,205.952c-40.785,0-73.848-33.061-73.848-73.849c0-40.787,33.062-73.85,73.848-73.85
			c18.418,0,15.975-3.703,28.557-11.476c10.869-8.342,14.16-28.021,14.16-28.021s-3.836,2.467-7.678,5.76
			c-3.838,3.291-2.469-2.469,1.373-6.955c3.836-4.487,12.615-14.715,12.615-14.715s-3.293,1.646-21.395,9.053
			c-18.102,7.406-31.342,7.252-31.342,7.252s0.014,0.028,0.02,0.037C194.955,5.633,169.303-2.224,141.799-2.224
			c-0.023,0-0.043,0.002-0.066,0.002c-0.02,0-0.043-0.002-0.062-0.002c-27.504,0-53.158,7.857-74.891,21.414
			c0.004-0.009,0.018-0.037,0.018-0.037s-13.24,0.154-31.342-7.252C17.352,4.493,14.061,2.848,14.061,2.848
			s8.777,10.228,12.617,14.715c3.84,4.486,5.211,10.246,1.371,6.955c-3.84-3.293-7.678-5.76-7.678-5.76s3.289,19.679,14.16,28.021
			c12.58,7.772,10.141,11.476,28.557,11.476c40.787,0,73.85,33.062,73.85,73.85c0,40.788-33.062,73.849-73.85,73.849
			c-23.422,0-44.281-10.914-57.811-27.922C22.064,237.579,76.75,281.243,141.67,281.243c0.02,0,0.043-0.002,0.062-0.002
			c0.023,0,0.043,0.002,0.066,0.002c64.918,0,119.604-43.664,136.393-103.213C264.658,195.038,243.801,205.952,220.379,205.952z
			 M141.67,212.947l-18.721-25.779c0,0,7.818-6.852,18.783-6.543c10.686-0.486,18.787,6.543,18.787,6.543L141.67,212.947z"/>
		<path fill="#FFE615" d="M141.67,212.81l-18.721-25.779c0,0,7.818-6.852,18.785-6.543c10.684-0.488,18.785,6.543,18.785,6.543
			L141.67,212.81z"/>
	</g>
</g>
</svg>
