<?xml version="1.0" encoding="utf-8"?>
<!-- Generator: Adobe Illustrator 16.0.0, SVG Export Plug-In . SVG Version: 6.00 Build 0)  -->
<!DOCTYPE svg PUBLIC "-//W3C//DTD SVG 1.1//EN" "http://www.w3.org/Graphics/SVG/1.1/DTD/svg11.dtd">
<svg version="1.1" id="Layer_1" xmlns="http://www.w3.org/2000/svg" xmlns:xlink="http://www.w3.org/1999/xlink" x="0px" y="0px"
	 width="290px" height="285.45px" viewBox="-3.268 -3.216 290 285.45" enable-background="new -3.268 -3.216 290 285.45"
	 xml:space="preserve">
<g>
	<path fill="#FFFFFF" d="M283.465,247.226c0,18.787-15.229,34.016-34.016,34.016H34.016C15.229,281.241,0,266.013,0,247.226V31.793
		C0,13.007,15.229-2.222,34.016-2.222h215.434c18.786,0,34.016,15.229,34.016,34.016V247.226z"/>
	<g>
		<g>
			<path fill="#FFC917" d="M183.17,86.085h18.054l-23.085,80.209c-0.99,3.551-1.479,6.416-1.479,8.584
				c0,4.934,1.971,7.398,5.918,7.398c2.369,0,5.868-0.738,10.508-2.217c4.635-1.482,9.322-4.443,14.058-8.881
				c4.735-4.441,8.881-10.553,12.433-18.35c3.549-7.795,5.328-18.103,5.328-30.929c0-10.459-2.073-20.027-6.216-28.709
				c-4.146-8.682-9.721-16.134-16.723-22.35c-7.008-6.215-15.049-11.048-24.123-14.502c-9.078-3.45-18.452-5.181-28.117-5.181
				c-12.829,0-24.713,2.322-35.666,6.956c-10.952,4.64-20.524,11.101-28.709,19.386c-8.191,8.286-14.604,18.105-19.238,29.451
				c-4.639,11.35-6.956,23.629-6.956,36.848c0,12.631,2.415,24.123,7.252,34.48c4.832,10.361,11.247,19.193,19.238,26.49
				c7.991,7.303,17.167,12.926,27.527,16.869c10.358,3.945,21.16,5.922,32.407,5.922c15.191,0,28.562-3.061,40.104-9.176
				c11.545-6.113,20.764-14.303,27.674-24.564h18.055c-3.357,8.684-8.138,16.18-14.355,22.496
				c-6.213,6.309-13.319,11.584-21.311,15.832c-7.99,4.238-16.674,7.398-26.044,9.471c-9.374,2.072-18.897,3.109-28.562,3.109
				c-12.829,0-25.26-2.473-37.293-7.402c-12.036-4.932-22.691-11.838-31.964-20.717c-9.278-8.879-16.723-19.434-22.347-31.67
				c-5.623-12.23-8.436-25.648-8.436-40.254c0-16.966,2.959-32.259,8.879-45.876c5.919-13.613,13.86-25.203,23.827-34.775
				c9.96-9.566,21.503-16.918,34.628-22.051c13.12-5.127,26.98-7.693,41.585-7.693c11.839,0,23.331,2.122,34.479,6.363
				c11.145,4.244,21.016,10.166,29.6,17.758c8.582,7.598,15.438,16.675,20.569,27.23c5.13,10.556,7.693,22.151,7.693,34.775
				c0,12.831-1.923,24.173-5.771,34.038c-3.849,9.867-8.983,18.154-15.389,24.861c-6.415,6.709-13.718,11.742-21.904,15.094
				c-8.189,3.357-16.626,5.033-25.305,5.033c-5.133,0-9.227-1.627-12.283-4.885c-3.061-3.256-4.786-7.148-5.181-11.691
				c-4.144,5.92-8.78,10.164-13.91,12.729c-5.133,2.564-11.149,3.848-18.054,3.848c-6.317,0-11.987-1.23-17.019-3.701
				c-5.031-2.463-9.278-5.721-12.727-9.766c-3.455-4.043-6.118-8.631-7.992-13.764c-1.877-5.127-2.811-10.357-2.811-15.686
				c0-8.682,1.525-17.465,4.587-26.342c3.057-8.88,7.298-16.918,12.727-24.124c5.426-7.198,11.988-13.067,19.684-17.608
				c7.693-4.537,16.176-6.81,25.452-6.81c4.537,0,8.584,0.791,12.135,2.37c3.554,1.58,6.56,3.504,9.027,5.771
				c2.465,2.27,4.538,4.588,6.216,6.957c1.674,2.367,2.813,4.439,3.401,6.214L183.17,86.085z M163.339,152.681
				c1.578-5.129,2.812-9.373,3.7-12.729c0.889-3.353,1.578-6.066,2.07-8.136c0.492-2.075,0.788-3.651,0.891-4.737
				c0.096-1.084,0.146-2.021,0.146-2.812c0-7.496-2.27-13.563-6.808-18.204c-4.541-4.633-10.062-6.953-16.573-6.953
				c-5.328,0-10.61,1.775-15.836,5.329c-5.229,3.55-9.913,8.04-14.058,13.464c-4.144,5.431-7.451,11.348-9.915,17.761
				c-2.471,6.412-3.701,12.479-3.701,18.201c0,3.551,0.445,7.057,1.334,10.508c0.887,3.453,2.266,6.561,4.143,9.322
				c1.873,2.764,4.293,4.986,7.251,6.658c2.959,1.678,6.512,2.516,10.655,2.516c7.497,0,14.697-2.613,21.607-7.844
				C155.149,169.8,160.182,162.349,163.339,152.681z"/>
		</g>
	</g>
</g>
</svg>
