<?xml version="1.0" encoding="utf-8"?>
<!-- Generator: Adobe Illustrator 16.0.0, SVG Export Plug-In . SVG Version: 6.00 Build 0)  -->
<!DOCTYPE svg PUBLIC "-//W3C//DTD SVG 1.1//EN" "http://www.w3.org/Graphics/SVG/1.1/DTD/svg11.dtd">
<svg version="1.1" id="Layer_1" xmlns="http://www.w3.org/2000/svg" xmlns:xlink="http://www.w3.org/1999/xlink" x="0px" y="0px"
	 width="290px" height="285.45px" viewBox="-3.268 -3.216 290 285.45" enable-background="new -3.268 -3.216 290 285.45"
	 xml:space="preserve">
<g>
	<path fill="#FFFFFF" d="M283.465,247.226c0,18.787-15.229,34.016-34.016,34.016H34.016C15.229,281.241,0,266.013,0,247.226V31.793
		C0,13.007,15.229-2.222,34.016-2.222h215.434c18.786,0,34.016,15.229,34.016,34.016V247.226z"/>
	<g>
		<g>
			<g>
				<path fill="#E13B3F" d="M52.551,112.577c-30.079-0.006-31.25,23.41-31.096,29.49c0,0-1.474,27.375,30.359,27.375
					c27.353,0,28.7-17.178,28.7-17.178L67.93,152.29c0,0-2.451,9.463-16.063,9.211c-17.5-0.326-18.18-17.281-18.18-17.281h48.48
					C82.167,144.22,85.846,112.583,52.551,112.577z M34.09,135.919c0,0,0.861-15.331,18.164-15.336
					c17.239-0.006,17.239,15.336,17.239,15.336H34.09z"/>
			</g>
		</g>
		<g>
			<g>
				<path fill="#2065A6" d="M115.839,112.577c-15.125-0.086-21.631,8.956-21.631,8.956v-30.25H82.083l0.205,63.931
					c0,0-0.073,7.449-0.532,12.369h11.777l0.504-7.182c0,0,5.493,9.041,21.548,9.041c16.056,0,28.731-9.887,29.068-28.221
					C144.991,122.885,130.964,112.661,115.839,112.577z M113.062,161.269c-19.101,0.24-18.79-20.258-18.79-20.258
					s-0.696-19.73,18.759-20.237c19.454-0.508,18.82,20.657,18.82,20.657S132.161,161.027,113.062,161.269z"/>
			</g>
		</g>
		<g>
			<g>
				<path fill="#F4A014" d="M200.676,154.962c0.029-8.27,0.271-15.654,0-20.861c-0.318-6.039,0.253-20.616-25.857-21.692
					c0,0-25.032-2.282-27.631,16.349h12.802c0,0,0.994-8.536,13.985-8.289c12.294,0.231,14.534,6.262,14.471,13.678
					c0,0-10.537,0.027-14.053,0.047c-6.337,0.031-28.515,0.732-30.585,14.24c-2.463,16.062,11.873,21.074,23.089,21.01
					c11.219-0.062,17.617-3.422,22.371-9.441l0.507,7.477l11.154-0.064C200.929,167.413,200.643,163.234,200.676,154.962z
					 M168.988,161.712c0,0-12.153,0.014-12.866-9.697c-0.76-10.361,18.696-9.738,18.696-9.738l13.747-0.014
					C188.565,142.263,190.789,161.995,168.988,161.712z"/>
			</g>
		</g>
		<polygon fill="#64A635" points="194.042,114.604 208.11,114.604 228.686,155.628 249.304,114.604 262.021,114.604 
			224.799,187.738 211.196,187.738 221.97,167.413 		"/>
	</g>
</g>
</svg>
