<?xml version="1.0" encoding="utf-8"?>
<!-- Generator: Adobe Illustrator 16.0.0, SVG Export Plug-In . SVG Version: 6.00 Build 0)  -->
<!DOCTYPE svg PUBLIC "-//W3C//DTD SVG 1.1//EN" "http://www.w3.org/Graphics/SVG/1.1/DTD/svg11.dtd">
<svg version="1.1" id="Layer_1" xmlns="http://www.w3.org/2000/svg" xmlns:xlink="http://www.w3.org/1999/xlink" x="0px" y="0px"
	 width="283.465px" height="279.018px" viewBox="0 0 283.465 279.018" enable-background="new 0 0 283.465 279.018"
	 xml:space="preserve">
<g>
	<path fill="#27497E" d="M269.077,0H14.385C6.489,0,0.041,6.421,0.006,14.323L0,264.657c0.013,7.92,6.467,14.36,14.385,14.36
		h143.042V165.085h-36.511v-34.953h36.511V87.099c0-24.729,22.751-39.913,39.078-39.913h39.271v31.515h-17.254
		c-10.48,0-23.275,8.5-23.275,18.417v33.015h36.824v34.953h-36.824v113.933h73.83c7.929,0,14.389-6.459,14.389-14.387V14.384
		C283.465,6.452,277.005,0,269.077,0z"/>
</g>
</svg>
