<?xml version="1.0" encoding="utf-8"?>
<!-- Generator: Adobe Illustrator 16.0.0, SVG Export Plug-In . SVG Version: 6.00 Build 0)  -->
<!DOCTYPE svg PUBLIC "-//W3C//DTD SVG 1.1//EN" "http://www.w3.org/Graphics/SVG/1.1/DTD/svg11.dtd">
<svg version="1.1" id="Layer_1" xmlns="http://www.w3.org/2000/svg" xmlns:xlink="http://www.w3.org/1999/xlink" x="0px" y="0px"
	 width="290px" height="285.45px" viewBox="-3.268 -3.216 290 285.45" enable-background="new -3.268 -3.216 290 285.45"
	 xml:space="preserve">
<g>
	<circle fill="#FFFFFF" cx="141.999" cy="141.373" r="140.267"/>
	<path fill="#27497E" d="M36.459,188.981c5.01-5.006,20.023-12.873,12.156-26.453c-7.866-13.584-15.013-20.018-16.446-26.453
		c-1.424-6.434-4.285-11.439,0.721-12.153c5.002-0.713,9.291,0,6.435-6.434c-2.865-6.434-6.435-20.02,2.856-32.172
		S62.917,65.3,69.351,65.3c6.435,0,12.869-0.715,10.725,6.434c-2.146,7.148-9.301,40.033-7.867,50.043
		c1.432,10.009,6.434,28.599,14.301,37.892c7.858,9.293,10.008,20.016-8.579,26.451c-18.591,6.434-34.315,12.869-40.751,17.875
		c-6.057,4.711-11.427,10.053-12.638,14.832c3.674,5.395,7.712,10.527,12.077,15.354l1.985-5.166c0,0,5.006-10.008,30.026-18.586
		c25.025-8.58,44.328-15.727,41.471-31.455c-2.865-15.73-0.716-18.59-8.578-28.598c-7.867-10.01-17.162-24.307-13.59-27.882
		c3.578-3.576,10.816,3.573,7.155-12.154c-2.161-9.289-2.865-42.182,11.437-52.904c14.301-10.725,23.592-12.152,34.315-12.152
		c0.36,0,0.712,0.102,1.073,0.158c0.355-0.057,0.711-0.158,1.072-0.158c10.722,0,20.015,1.428,34.315,12.152
		c14.297,10.723,13.068,43.506,11.436,52.904c-2.59,14.923,3.578,8.578,7.15,12.154c3.574,3.575-5.719,17.872-13.584,27.882
		c-7.867,10.008-5.719,12.867-8.58,28.598c-2.861,15.729,16.445,22.875,41.467,31.455c25.021,8.578,30.027,18.586,30.027,18.586
		l1.877,4.881c4.369-4.859,8.414-10.008,12.094-15.438c-1.393-4.688-6.645-9.873-12.543-14.463
		c-6.434-5.006-22.16-11.441-40.75-17.875c-18.592-6.436-16.441-17.158-8.58-26.451c7.863-9.293,12.869-27.883,14.303-37.892
		c1.428-10.01-5.723-42.895-7.867-50.043s4.289-6.434,10.723-6.434c6.436,0,17.875,7.863,27.17,20.016
		c9.291,12.152,5.719,25.738,2.857,32.172s1.432,5.721,6.434,6.434c5.002,0.714,2.145,5.72,0.717,12.153
		c-1.428,6.436-8.578,12.869-16.441,26.453c-7.867,13.58,7.146,21.447,12.152,26.453c2.76,2.76,13.559,7.037,22.691,10.32
		c8.588-18.271,13.414-38.664,13.414-60.189c0-78.276-63.459-141.731-141.734-141.731C63.452-2.62-0.002,60.835-0.002,139.112
		c0,21.57,4.842,42.002,13.464,60.303C22.66,196.114,33.669,191.77,36.459,188.981z"/>
</g>
</svg>
