<?xml version="1.0" encoding="utf-8"?>
<!-- Generator: Adobe Illustrator 16.0.0, SVG Export Plug-In . SVG Version: 6.00 Build 0)  -->
<!DOCTYPE svg PUBLIC "-//W3C//DTD SVG 1.1//EN" "http://www.w3.org/Graphics/SVG/1.1/DTD/svg11.dtd">
<svg version="1.1" id="Layer_1" xmlns="http://www.w3.org/2000/svg" xmlns:xlink="http://www.w3.org/1999/xlink" x="0px" y="0px"
	 width="290px" height="285.45px" viewBox="-3.268 -3.216 290 285.45" enable-background="new -3.268 -3.216 290 285.45"
	 xml:space="preserve">
<g>
	<path fill="#FFFFFF" d="M283.465,247.226c0,18.787-15.229,34.016-34.016,34.016H34.016C15.229,281.241,0,266.013,0,247.226V31.793
		C0,13.007,15.229-2.222,34.016-2.222h215.434c18.786,0,34.016,15.229,34.016,34.016V247.226z"/>
	<g>
		<path fill-rule="evenodd" clip-rule="evenodd" fill="#E3463B" d="M257.643,129.031c1.232-0.512,1.332-0.602,0.875-1.903
			c-2.607-7.441-12.419-11.459-20.776-7.974c-6.592,2.749-11.364,9.72-11.364,17.515c0,10.504,7.581,19.844,17.88,19.844
			c4.723,0,8.08-0.652,11.069-2.549c0.64-0.594,4.251-3.484,4.286-4.102c0.007-0.143-0.508,0.307-1.294,0.74
			c-2.328,1.224-5.815,1.693-8.553,1.743c-5.536,0.101-9.958-3.672-12.842-8.149c-1.856-2.883-3.057-6.179-3.353-9.717
			c-0.46-5.439,0.871-11.694,7.015-13.229c4.087-1.022,7.958,1.269,9.462,5.204c0.684,1.786,0.271,2.716-1.381,3.396l-14.779,6.173
			l5.038,0.323C244.928,133.858,251.644,131.522,257.643,129.031L257.643,129.031z"/>
		<path fill-rule="evenodd" clip-rule="evenodd" fill="#43A55A" d="M212.144,98.74c3.749,0,7.281,0,11.033,0
			c-1.535,0.995-2.052,1.405-2.711,2.452c-0.473,0.748-0.595,2.168-0.68,3.45c-0.645,14.731-0.25,29.576-0.346,44.311
			c0.062,4.016,1.639,3.543,6.861,3.391c-0.786,0.668-2.062,1.986-3.054,2.555c-4.711,0-9.207-0.102-13.918-0.102
			c1.775-1.833,2.686-3.014,2.562-7.598c0.095-15.396-0.514-30.172,0.424-44.999c-2.209,0.063-4.215,0.031-6.424,0.095
			C207.976,101.219,209.949,99.704,212.144,98.74L212.144,98.74z"/>
		<path fill-rule="evenodd" clip-rule="evenodd" fill="#1173B4" d="M192.199,157.417c0.794,0.581,1.619,1.146,2.472,1.685
			c4.635,2.937,6.113,6.524,5.736,9.837c-0.455,3.994-4.287,7.143-10.848,7.54c-7.007,0.425-16.437-2.349-14.69-11.563
			c0.93-4.908,7.443-7.443,12.83-7.622C189.19,157.243,190.708,157.368,192.199,157.417L192.199,157.417z M208.037,119.064
			l-4.718,3.055h-5.37c2.268,1.585,4.006,3.868,4.964,6.41c1.021,2.71,1.162,5.712,0.127,8.477
			c-0.979,2.605-2.961,4.852-5.875,6.558c-1.655,0.971-2.492,2.198-2.585,3.379c-0.27,3.441,3.937,5.944,6.366,7.763
			c5.32,3.982,7.399,10.518,3.878,16.83c-3.363,6.027-11.373,8.717-19.88,8.746c-10.565-0.047-17.23-4.887-17.583-11.479
			c-0.453-8.516,8.286-12.57,16.181-13.494c2.211-0.259,4.187-0.217,6.045-0.085c-2.796-1.841-3.839-5.589-2.412-8.093
			c0.37-0.651,0.135-0.428-0.568-0.32c-6.459,0.976-13.111-3.24-14.668-9.61c-0.791-3.233-0.299-6.61,0.933-9.258
			c2.674-5.743,8.621-8.934,15.218-8.934C194.954,119.008,201.309,119.011,208.037,119.064L208.037,119.064z M196.161,133.071
			c0.841,5.101-0.455,9.937-5.065,11.21c-4.719,1.307-9.938-2.365-11.616-8.938c-1.841-7.209,0.063-11.786,4.51-13.166
			C189.252,120.538,194.878,125.286,196.161,133.071L196.161,133.071z"/>
		<path fill-rule="evenodd" clip-rule="evenodd" fill="#FFE01C" d="M148.025,117.998c12.661,0,19.266,8.418,19.857,18.278
			c0.586,9.824-7.513,18.613-17.427,19.666c-11.922,1.266-22.331-6.947-22.331-18.925
			C128.125,126.542,137.064,117.998,148.025,117.998L148.025,117.998z M159.989,137.54c0.729,7.227-1.697,13.938-8.182,15.438
			c-6.635,1.535-13.668-3.97-15.424-13.321c-1.929-10.258,1.257-17.013,7.521-18.674
			C151.321,119.016,158.885,126.506,159.989,137.54L159.989,137.54z"/>
		<path fill-rule="evenodd" clip-rule="evenodd" fill="#E3463B" d="M104.626,117.998c12.812,0,19.494,8.418,20.094,18.278
			c0.593,9.824-7.604,18.613-17.635,19.666c-12.062,1.266-22.596-6.947-22.596-18.925
			C84.489,126.542,93.536,117.998,104.626,117.998L104.626,117.998z M116.732,137.54c0.734,7.227-1.719,13.938-8.279,15.438
			c-6.712,1.535-13.829-3.97-15.607-13.321c-1.949-10.258,1.273-17.013,7.61-18.674C107.962,119.016,115.613,126.506,116.732,137.54
			L116.732,137.54z"/>
		<path fill-rule="evenodd" clip-rule="evenodd" fill="#1173B4" d="M72.792,112.728l5.759-5.871
			c-9.776-8.091-26.542-9.154-37.651-3.536c-9.662,4.886-16.688,14.589-17.032,25.425c-0.362,11.406,6.267,20.428,12.994,24.965
			c11.104,7.487,30.355,5.82,41.954-0.033l-0.004-1.088h0.002v-11.953l2.7-3.161H64.619l-6.259,3.522l12.152-0.361
			c0,3.403,0,7.131,0,10.537c0,1.494,0.02,1.734-2.443,2.53c-3.468,0.91-7.381,1.09-10.958,0.79
			c-12.135-1.012-21.384-10.599-23.574-22.559c-2.079-11.346,3.272-22.079,12.318-26.508c4.419-2.163,9.719-3.179,15.465-1.339
			c3.602,1.152,6.873,3.229,9.722,6.091l-1.984,3.61L72.792,112.728L72.792,112.728z"/>
	</g>
</g>
</svg>
