<?xml version="1.0" encoding="utf-8"?>
<!-- Generator: Adobe Illustrator 16.0.0, SVG Export Plug-In . SVG Version: 6.00 Build 0)  -->
<!DOCTYPE svg PUBLIC "-//W3C//DTD SVG 1.1//EN" "http://www.w3.org/Graphics/SVG/1.1/DTD/svg11.dtd">
<svg version="1.1" id="Layer_1" xmlns="http://www.w3.org/2000/svg" xmlns:xlink="http://www.w3.org/1999/xlink" x="0px" y="0px"
	 width="290px" height="285.45px" viewBox="-3.268 -3.216 290 285.45" enable-background="new -3.268 -3.216 290 285.45"
	 xml:space="preserve">
<g>
	<path fill="#27497E" d="M249.766-2.221H33.7C15.088-2.221,0,12.829,0,31.398v216.226c0,18.566,15.088,33.617,33.7,33.617h216.065
		c18.613,0,33.699-15.051,33.699-33.617V31.398C283.465,12.829,268.379-2.221,249.766-2.221z M196.906,37.991
		c0-4.368,3.549-7.91,7.928-7.91h38.326c4.379,0,7.928,3.542,7.928,7.91v38.234c0,4.37-3.549,7.91-7.928,7.91h-38.326
		c-4.379,0-7.928-3.54-7.928-7.91V37.991z M142.063,85.454c30.106,0,54.512,24.352,54.512,54.385
		c0,30.037-24.405,54.384-54.512,54.384c-30.105,0-54.512-24.347-54.512-54.384C87.552,109.806,111.958,85.454,142.063,85.454z
		 M251.748,240.369c0,4.368-3.549,7.91-7.928,7.91H40.307c-4.379,0-7.93-3.542-7.93-7.91V117.097h26.522
		c-1.994,7.247-3.064,14.871-3.064,22.742c0,47.436,38.681,86.026,86.229,86.026c47.546,0,86.229-38.591,86.229-86.026
		c0-7.871-1.07-15.495-3.065-22.742h26.521V240.369z"/>
</g>
</svg>
