<?xml version="1.0" encoding="utf-8"?>
<!-- Generator: Adobe Illustrator 16.0.0, SVG Export Plug-In . SVG Version: 6.00 Build 0)  -->
<!DOCTYPE svg PUBLIC "-//W3C//DTD SVG 1.1//EN" "http://www.w3.org/Graphics/SVG/1.1/DTD/svg11.dtd">
<svg version="1.1" id="Layer_1" xmlns="http://www.w3.org/2000/svg" xmlns:xlink="http://www.w3.org/1999/xlink" x="0px" y="0px"
	 width="290px" height="285.45px" viewBox="-3.268 -3.216 290 285.45" enable-background="new -3.268 -3.216 290 285.45"
	 xml:space="preserve">
<g>
	<rect x="25.555" y="21.82" fill="#FFFFFF" width="232.356" height="217.203"/>
	<path fill="#789F33" d="M251.162-2.223H32.303C14.463-2.223,0,12.242,0,30.08v218.861c0,17.84,14.463,32.301,32.303,32.301h218.859
		c17.84,0,32.303-14.461,32.303-32.301V30.08C283.465,12.242,269.002-2.223,251.162-2.223z M142.443,225.214
		c-12.059,0-23.639-1.73-34.449-4.871c-7.557,4.568-24.381,12.402-46.031,8.256c0,0,17.373-4.998,18.488-20.328
		c-27.133-16.531-44.84-43.602-44.84-74.22c0-50.349,47.83-91.164,106.832-91.164c59.004,0,106.836,40.815,106.836,91.164
		C249.279,184.4,201.447,225.214,142.443,225.214z"/>
</g>
</svg>
