<?xml version="1.0" encoding="utf-8"?>
<!-- Generator: Adobe Illustrator 16.0.0, SVG Export Plug-In . SVG Version: 6.00 Build 0)  -->
<!DOCTYPE svg PUBLIC "-//W3C//DTD SVG 1.1//EN" "http://www.w3.org/Graphics/SVG/1.1/DTD/svg11.dtd">
<svg version="1.1" id="Layer_1" xmlns="http://www.w3.org/2000/svg" xmlns:xlink="http://www.w3.org/1999/xlink" x="0px" y="0px"
	 width="290px" height="285.45px" viewBox="-3.268 -3.216 290 285.45" enable-background="new -3.268 -3.216 290 285.45"
	 xml:space="preserve">
<g>
	<rect x="38.655" y="78.239" fill="#FFFFFF" width="206.152" height="159.772"/>
	<g>
		<g>
			<path fill="#FFC917" d="M248.492,56.266c0,0-17.385,0-26.49,0s-13.246-2.898-21.107-17.799
				c-7.865-14.9-24.836-17.383-24.836-17.383h-34.8c0,0-19.005,0-32.663,0S82.52,33.916,79.624,45.919
				c-2.899,12.003-23.593,10.684-47.677,10.684C7.864,56.602,0,88.549,0,88.549s0,104.716,0,134.464s34.922,34.922,34.922,34.922
				s185.011,0,213.257,0c28.248,0,35.285-35.283,35.285-35.283s0-91.885,0-129.964C283.465,54.61,248.492,56.266,248.492,56.266z
				 M141.292,232.169c-41.146,0-74.501-33.354-74.501-74.5c0-41.145,33.355-74.501,74.501-74.501c41.145,0,74.5,33.356,74.5,74.501
				C215.793,198.816,182.438,232.169,141.292,232.169z"/>
			<circle fill="#FFC917" cx="141.259" cy="157.255" r="50.495"/>
		</g>
	</g>
</g>
</svg>
