<?xml version="1.0" encoding="utf-8"?>
<!-- Generator: Adobe Illustrator 16.0.0, SVG Export Plug-In . SVG Version: 6.00 Build 0)  -->
<!DOCTYPE svg PUBLIC "-//W3C//DTD SVG 1.1//EN" "http://www.w3.org/Graphics/SVG/1.1/DTD/svg11.dtd">
<svg version="1.1" id="Layer_1" xmlns="http://www.w3.org/2000/svg" xmlns:xlink="http://www.w3.org/1999/xlink" x="0px" y="0px"
	 width="290px" height="285.45px" viewBox="-3.268 -3.216 290 285.45" enable-background="new -3.268 -3.216 290 285.45"
	 xml:space="preserve">
<g>
	<path fill="#FFFFFF" d="M283.465,247.226c0,18.787-15.229,34.016-34.016,34.016H34.016C15.229,281.241,0,266.013,0,247.226V31.793
		C0,13.006,15.229-2.222,34.016-2.222h215.434c18.786,0,34.016,15.229,34.016,34.016V247.226z"/>
	<g>
		<g>
			<polygon fill="#FFC917" points="114.073,213.267 132.515,213.267 132.515,194.829 114.073,194.829 95.635,194.829 
				95.635,213.267 			"/>
			<polygon fill="#FFC917" points="150.951,194.829 150.951,213.267 169.39,213.267 187.828,213.267 187.828,194.829 
				169.39,194.829 			"/>
			<path fill="#FFC917" d="M224.705,139.513V121.07h-18.439v-18.441V84.191h-18.438v18.438H169.39h-18.438h-18.437h-18.441H95.635
				V84.191H77.197v18.438v18.441H58.758v18.443H40.319v18.434v18.441v18.441h18.438v-18.441v-18.441h18.439v18.441v18.441h18.438
				v-18.441h18.438h18.441h18.437h18.438h18.438v18.441h18.438v-18.441v-18.441h18.439v18.441v18.441h18.441v-18.441v-18.441
				v-18.434H224.705z M114.073,139.513H95.635V121.07h18.438V139.513z M187.828,139.513H169.39V121.07h18.438V139.513z"/>
			<rect x="58.758" y="65.752" fill="#FFC917" width="18.439" height="18.438"/>
			<rect x="206.266" y="65.752" fill="#FFC917" width="18.439" height="18.438"/>
		</g>
	</g>
</g>
</svg>
