<?xml version="1.0" encoding="utf-8"?>
<!-- Generator: Adobe Illustrator 16.0.0, SVG Export Plug-In . SVG Version: 6.00 Build 0)  -->
<!DOCTYPE svg PUBLIC "-//W3C//DTD SVG 1.1//EN" "http://www.w3.org/Graphics/SVG/1.1/DTD/svg11.dtd">
<svg version="1.1" id="Layer_1" xmlns="http://www.w3.org/2000/svg" xmlns:xlink="http://www.w3.org/1999/xlink" x="0px" y="0px"
	 width="290px" height="285.45px" viewBox="-3.268 -3.216 290 285.45" enable-background="new -3.268 -3.216 290 285.45"
	 xml:space="preserve">
<g id="layer1" transform="translate(-665.9375,-268.78125)">
	<rect id="rect3148" x="665.938" y="266.559" fill="#DE2626" width="283.465" height="283.464"/>
	<g id="g3132" transform="translate(662.98062,108.45475)">
		<g display="none">
			<path id="path2999" display="inline" fill="#241F21" d="M39.562,260.092v1.344c0,0-0.004,2.379-0.004,4.447
				c-2.068-2.295-5.213-5.787-5.213-5.787H19.988l0.004,71.301l8.271,6.531l8.625-1.08c0,0,0.037-3.766,0.061-6.322
				c2.834,2.33,6.713,5.516,6.713,5.516l14.123-1.438v-67.172l-7.664-7.322L39.562,260.092"/>
			<path id="path3001" display="inline" fill="#241F21" d="M126.537,260.088H101.99v9.496c0,0,6.488,5.102,7.381,5.799
				c0,1.273,0,48.951,0,48.951l8.127,6.52l9.822-0.246c0,0,0-52.691,0-55.232c1.777-0.014,7.258-0.053,7.258-0.053v-6.914
				l-7.441-8.32H126.537"/>
			<path id="path3003" display="inline" fill="#241F21" d="M225.764,260.092h-9.668v65.541l8.244,7.645l9.754,0.811v-66.477
				l-7.787-7.52H225.764"/>
			<path id="path3005" display="inline" fill="#241F21" d="M273.799,300.161c0.088-0.486,5.846-32.031,5.846-32.031l-7.855-8.029
				h-10.227c0,0-0.531,3.297-0.867,5.375c-2.029-2.197-4.955-5.375-4.955-5.375h-10.543c0,0,6.014,31.482,6.1,31.943
				c-0.072,0.457-5.76,35.844-5.76,35.844l11.178,8.504l6.672,0.791c0,0,0-3.865,0-5.969c2.803,2.186,9.191,7.158,9.191,7.158
				l8.814,1.221C281.392,339.592,273.891,300.651,273.799,300.161"/>
			<path id="path3007" display="inline" fill="#241F21" d="M199.254,314.354c0-4.195,0-46.977,0-46.977l-7.684-7.285h-10.326v63.947
				l8.193,7.17l18.686,0.934l-0.412-8.293C207.711,323.85,201.133,316.463,199.254,314.354"/>
			<path id="path3009" display="inline" fill="#241F21" d="M87.158,274.274c1.863,0,8.025,0,8.025,0v-6.861l-7.656-7.332h-0.541
				l-17.857,0.016v66.508l8.074,6.359l17.98-1.129v-7.357c0,0-7.391-8.174-8.025-8.873c0-0.863,0-9.791,0-11.889
				c1.873,0,8.133,0,8.133,0v-7.416c0,0-7.42-7.422-8.133-8.139C87.158,287.217,87.158,276.438,87.158,274.274"/>
			<path id="path3011" display="inline" fill="#241F21" d="M162.099,274.27c1.861,0,8.021,0,8.021,0v-6.861l-7.654-7.328h-0.541
				l-17.869,0.012v63.498l8.199,6.801l9.844,0.066c0,0,0-24.318,0-26.746c1.871,0,8.129,0.004,8.129,0.004v-7.416
				c0,0-7.422-7.422-8.129-8.139C162.099,287.213,162.099,276.434,162.099,274.27"/>
		</g>
		<g>
			<path id="path3013" fill="#FFFFFF" d="M218.23,324.413c0,0,2.496,0.123,6.777,0.434v-62.855l-6.777,0.012V324.413"/>
			<path id="path3015" fill="#FFFFFF" d="M104.133,268.268h7.381v54.68c0,0,1.586-0.123,6.76-0.244l0.033-54.422h7.473v-6.275
				l-21.646-0.002V268.268"/>
			<path id="path3017" fill="#FFFFFF" d="M41.916,316.02l-0.48,0.059l-8.248-54.066l-10.988-0.016l0.006,67.867
				c0,0,2.182-0.311,6.82-0.842l-0.479-51.58l0.479-0.047l7.848,50.822c0,0,2.682-0.318,11.807-1.219v-64.996l-7.01,0.002
				L41.916,316.02"/>
			<path id="path3019" fill="#FFFFFF" d="M270.9,261.991h-7.637l-3.838,24.25h-0.451l-3.979-24.25h-7.502l5.859,29.996
				l-5.662,35.057l7.283,0.693l3.752-28.902l0.461,0.006l3.637,29.711l7.99,0.893l-5.709-36.602L270.9,261.991"/>
			<path id="path3021" fill="#FFFFFF" d="M190.195,261.983l-6.805,0.014v60.732c0,0,4.611,0.129,15.729,0.623v-6.16
				c0,0-1.242-0.129-8.924-0.395V261.983"/>
			<path id="path3023" fill="#FFFFFF" d="M71.269,325.159c0,0,4.016-0.275,15.633-1.021v-6.205l-8.783,0.605v-21.742l8.783-0.008
				v-6.324l-8.816,0.002v-22.191h8.844v-6.277l-15.66,0.008V325.159"/>
			<path id="path3025" fill="#FFFFFF" d="M146.191,322.231h6.865v-25.436l8.781-0.01v-6.324l-8.814,0.004v-22.191h8.848v-6.277
				l-15.68,0.006v60.23"/>
		</g>
	</g>
</g>
</svg>
