<?xml version="1.0" encoding="utf-8"?>
<!-- Generator: Adobe Illustrator 16.0.0, SVG Export Plug-In . SVG Version: 6.00 Build 0)  -->
<!DOCTYPE svg PUBLIC "-//W3C//DTD SVG 1.1//EN" "http://www.w3.org/Graphics/SVG/1.1/DTD/svg11.dtd">
<svg version="1.1" id="Layer_1" xmlns="http://www.w3.org/2000/svg" xmlns:xlink="http://www.w3.org/1999/xlink" x="0px" y="0px"
	 width="290px" height="285.45px" viewBox="-3.268 -3.216 290 285.45" enable-background="new -3.268 -3.216 290 285.45"
	 xml:space="preserve">
<g>
	<path fill="#FFFFFF" d="M283.465,247.227c0,18.787-15.229,34.016-34.016,34.016H34.016C15.229,281.242,0,266.014,0,247.227V31.792
		C0,13.007,15.229-2.223,34.016-2.223h215.434c18.786,0,34.016,15.23,34.016,34.016V247.227z"/>
	<path id="music" fill="#789F33" d="M109.727,61.14v59.49v97.124c-6.664-4.434-16.108-7.252-26.666-7.252
		c-20.168,0-36.517,10.098-36.517,22.572c0,12.453,16.349,22.562,36.517,22.562c20.166,0,36.514-10.109,36.514-22.562V117.706
		l107.5-31.908v94.2c-6.685-4.434-16.1-7.252-26.677-7.252c-20.157,0-36.507,10.098-36.507,22.57
		c0,12.455,16.35,22.562,36.507,22.562c20.178,0,36.524-10.107,36.524-22.562V82.876V23.384L109.727,61.14z"/>
</g>
</svg>
