<?xml version="1.0" encoding="utf-8"?>
<!-- Generator: Adobe Illustrator 16.0.0, SVG Export Plug-In . SVG Version: 6.00 Build 0)  -->
<!DOCTYPE svg PUBLIC "-//W3C//DTD SVG 1.1//EN" "http://www.w3.org/Graphics/SVG/1.1/DTD/svg11.dtd">
<svg version="1.1" id="Layer_1" xmlns="http://www.w3.org/2000/svg" xmlns:xlink="http://www.w3.org/1999/xlink" x="0px" y="0px"
	 width="290px" height="285.45px" viewBox="-3.268 -3.216 290 285.45" enable-background="new -3.268 -3.216 290 285.45"
	 xml:space="preserve">
<g>
	<path fill="#FFFFFF" d="M283.465,247.226c0,18.787-15.229,34.016-34.016,34.016H34.016C15.229,281.241,0,266.013,0,247.226V31.793
		C0,13.007,15.229-2.223,34.016-2.223h215.434c18.786,0,34.016,15.229,34.016,34.016V247.226z"/>
	<g>
		<g>
			<path fill="#FFC917" d="M246.361,140.296v8.902c0,5.236-4.191,9.428-9.431,9.428h-3.141v65.734
				c0,8.646-7.07,15.717-15.719,15.717H52.817c-8.903,0-15.713-7.07-15.713-15.717V107.295c0-8.646,6.81-15.713,15.713-15.713
				h28.284l40.333-40.334l-2.359-2.355l9.955-9.951l9.955,9.951l-9.955,9.951l-2.618-2.621L91.319,91.582H218.08
				c8.646,0,15.718,7.067,15.718,15.713v23.57h3.139C242.17,130.868,246.361,135.314,246.361,140.296z M66.698,165.175
				c2.618,0,4.977-2.361,4.977-4.977c0-2.625-2.358-4.98-4.977-4.98c-2.619,0-4.977,2.355-4.977,4.98
				C61.722,162.814,64.079,165.175,66.698,165.175z M68.007,182.98c2.62,0,4.977-2.357,4.977-4.977c0-2.617-2.356-4.975-4.977-4.975
				c-2.618,0-4.976,2.357-4.976,4.975C63.031,180.622,65.389,182.98,68.007,182.98z M72.198,148.411
				c2.618,0,4.976-2.355,4.976-4.975c0-2.617-2.357-4.976-4.976-4.976c-2.619,0-4.976,2.359-4.976,4.976
				C67.223,146.056,69.579,148.411,72.198,148.411z M76.912,198.697c2.618,0,4.977-2.359,4.977-4.977
				c0-2.621-2.358-4.979-4.977-4.979c-2.619,0-4.977,2.357-4.977,4.979S74.293,198.697,76.912,198.697z M81.102,174.339
				c2.62,0,4.977-2.357,4.977-4.979c0-2.615-2.356-4.977-4.977-4.977c-2.618,0-4.976,2.361-4.976,4.977
				C76.126,171.982,78.483,174.339,81.102,174.339z M84.245,156.792c2.619,0,4.979-2.361,4.979-4.979s-2.356-4.975-4.979-4.975
				c-2.619,0-4.977,2.357-4.977,4.975C79.269,154.435,81.626,156.792,84.245,156.792z M84.507,135.314
				c2.619,0,4.977-2.355,4.977-4.974s-2.357-4.978-4.977-4.978c-2.618,0-4.977,2.359-4.977,4.978
				C79.53,132.962,81.889,135.314,84.507,135.314z M88.958,190.056c2.62,0,4.977-2.359,4.977-4.979c0-2.621-2.356-4.975-4.977-4.975
				c-2.618,0-4.976,2.354-4.976,4.975C83.982,187.697,86.34,190.056,88.958,190.056z M91.055,209.435
				c2.618,0,4.976-2.355,4.976-4.977c0-2.619-2.357-4.975-4.976-4.975s-4.977,2.355-4.977,4.975
				C86.078,207.079,88.437,209.435,91.055,209.435z M95.768,176.96c2.62,0,4.976-2.359,4.976-4.979c0-2.621-2.355-4.973-4.976-4.973
				c-2.618,0-4.976,2.352-4.976,4.973C90.792,174.601,93.149,176.96,95.768,176.96z M97.077,144.745
				c2.619,0,4.978-2.355,4.978-4.974c0-2.618-2.358-4.977-4.978-4.977s-4.976,2.358-4.976,4.977
				C92.102,142.39,94.458,144.745,97.077,144.745z M98.911,159.675c2.619,0,4.976-2.359,4.976-4.982
				c0-2.617-2.356-4.973-4.976-4.973s-4.977,2.355-4.977,4.973C93.935,157.32,96.292,159.675,98.911,159.675z M101.006,128.247
				c2.618,0,4.981-2.357,4.981-4.974c0-2.619-2.36-4.977-4.981-4.977c-2.618,0-4.976,2.357-4.976,4.977
				C96.03,125.889,98.388,128.247,101.006,128.247z M104.411,198.435c2.88,0,4.978-2.098,4.978-4.975c0-2.887-2.095-4.98-4.978-4.98
				c-2.619,0-4.977,2.094-4.977,4.98C99.435,196.341,101.792,198.435,104.411,198.435z M108.34,213.365
				c2.618,0,4.975-2.359,4.975-4.977c0-2.619-2.356-4.982-4.975-4.982c-2.621,0-4.975,2.363-4.975,4.982
				C103.365,211.005,105.719,213.365,108.34,213.365z M109.389,160.464c-2.878,0-4.978,2.092-4.978,4.975
				c0,2.881,2.094,4.979,4.978,4.979c2.621,0,4.978-2.098,4.978-4.979C114.366,162.552,112.003,160.464,109.389,160.464z
				 M111.22,185.603c2.618,0,4.979-2.359,4.979-4.98c0-2.619-2.36-4.979-4.979-4.979c-2.617,0-4.978,2.359-4.978,4.979
				C106.242,183.243,108.603,185.603,111.22,185.603z M109.651,137.416c0,2.88,2.09,4.974,4.974,4.974
				c2.618,0,4.975-2.094,4.975-4.974c0-2.881-2.356-4.978-4.975-4.978C111.741,132.438,109.651,134.535,109.651,137.416z
				 M116.46,157.32c2.615,0,4.975-2.361,4.975-4.979c0-2.619-2.359-4.975-4.975-4.975c-2.622,0-4.978,2.355-4.978,4.975
				C111.482,154.958,113.838,157.32,116.46,157.32z M118.813,128.508c2.621,0,4.978-2.355,4.978-4.975
				c0-2.617-2.356-4.979-4.978-4.979c-2.615,0-4.976,2.358-4.976,4.979C113.838,126.152,116.198,128.508,118.813,128.508z
				 M121.958,196.075c2.619,0,4.975-2.355,4.975-4.977c0-2.619-2.355-4.977-4.975-4.977c-2.621,0-4.977,2.357-4.977,4.977
				C116.981,193.722,119.344,196.075,121.958,196.075z M123.791,173.298c2.618,0,4.978-2.363,4.978-4.982
				c0-2.617-2.359-4.977-4.978-4.977s-4.978,2.359-4.978,4.977C118.813,170.935,121.173,173.298,123.791,173.298z M126.152,209.96
				c2.616,0,4.976-2.359,4.976-4.979c0-2.621-2.359-4.975-4.976-4.975c-2.621,0-4.979,2.354-4.979,4.975
				C121.173,207.601,123.528,209.96,126.152,209.96z M130.076,150.773c2.618,0,4.977-2.361,4.977-4.979
				c0-2.619-2.358-4.975-4.977-4.975s-4.979,2.355-4.979,4.975C125.098,148.411,127.46,150.773,130.076,150.773z M134.529,184.029
				c2.617,0,4.978-2.355,4.978-4.975c0-2.621-2.355-4.98-4.978-4.98s-4.975,2.359-4.975,4.98
				C129.555,181.673,131.907,184.029,134.529,184.029z M135.053,126.152c-2.884,0-4.977,2.095-4.977,4.979
				c0,2.879,2.093,4.975,4.977,4.975c2.618,0,4.975-2.096,4.975-4.975C140.027,128.247,137.674,126.152,135.053,126.152z
				 M137.674,166.486c2.618,0,4.975-2.363,4.975-4.982s-2.356-4.977-4.975-4.977c-2.621,0-4.974,2.357-4.974,4.977
				S135.053,166.486,137.674,166.486z M140.555,199.749c2.618,0,4.975-2.363,4.975-4.982c0-2.617-2.356-4.977-4.975-4.977
				s-4.977,2.359-4.977,4.977C135.578,197.386,137.931,199.749,140.555,199.749z M146.84,149.462c2.618,0,4.975-2.357,4.975-4.977
				c0-2.621-2.356-4.976-4.975-4.976c-2.621,0-4.978,2.355-4.978,4.976C141.862,147.105,144.219,149.462,146.84,149.462z
				 M149.983,184.554c2.618,0,4.977-2.355,4.977-4.975c0-2.623-2.358-4.982-4.977-4.982c-2.621,0-4.978,2.359-4.978,4.982
				C145.006,182.198,147.362,184.554,149.983,184.554z M152.076,166.749c2.622,0,4.981-2.363,4.981-4.98
				c0-2.619-2.365-4.977-4.981-4.977c-2.615,0-4.977,2.357-4.977,4.977C147.1,164.386,149.458,166.749,152.076,166.749z
				 M201.578,121.44H182.72v88.778h18.858v-25.141l-10.218-2.621v-4.188l10.218-2.623V121.44z"/>
		</g>
	</g>
</g>
</svg>
