<?xml version="1.0" encoding="utf-8"?>
<!-- Generator: Adobe Illustrator 16.0.0, SVG Export Plug-In . SVG Version: 6.00 Build 0)  -->
<!DOCTYPE svg PUBLIC "-//W3C//DTD SVG 1.1//EN" "http://www.w3.org/Graphics/SVG/1.1/DTD/svg11.dtd">
<svg version="1.1" id="Layer_1" xmlns="http://www.w3.org/2000/svg" xmlns:xlink="http://www.w3.org/1999/xlink" x="0px" y="0px"
	 width="290px" height="285.45px" viewBox="-3.268 -3.216 290 285.45" enable-background="new -3.268 -3.216 290 285.45"
	 xml:space="preserve">
<rect x="61.486" y="46.514" fill="#FFFFFF" width="160.492" height="185.991"/>
<g>
	<g>
		<path fill="#27497E" d="M117.797,8.125c-0.456-0.254-0.93-0.473-1.395-0.719c-0.473,0.098-0.947,0.193-1.42,0.281L117.797,8.125z"
			/>
		<path fill="#27497E" d="M10.207,114.323c-0.093,0.482-0.154,0.973-0.237,1.459c0.25,0.447,0.469,0.908,0.724,1.346L10.207,114.323
			z"/>
		<path fill="#27497E" d="M273.186,164.613c0.096-0.498,0.156-0.998,0.248-1.498c-0.248-0.447-0.469-0.912-0.73-1.355
			L273.186,164.613z"/>
		<path fill="#27497E" d="M163.889,269.884c0.457,0.268,0.916,0.492,1.363,0.746c0.504-0.092,1-0.148,1.496-0.246L163.889,269.884z"
			/>
		<path fill="#27497E" d="M273.434,163.115c-0.092,0.5-0.152,1-0.248,1.498l-0.482-2.854
			C272.965,162.202,273.186,162.667,273.434,163.115c1.461-7.961,2.229-16.115,2.229-24.262c0-18.069-3.539-35.604-10.527-52.101
			c-6.742-15.945-16.387-30.258-28.688-42.547c-12.283-12.293-26.605-21.941-42.541-28.684
			c-16.498-6.984-34.029-10.518-52.095-10.518c-8.518,0-17.044,0.799-25.348,2.395c-0.018,0-0.039,0-0.062,0.008
			c0.465,0.246,0.938,0.465,1.395,0.719l-2.814-0.438c0.473-0.088,0.947-0.184,1.42-0.281C105.014,1.348,92.207-1.883,79.24-1.883
			c-21.166,0-41.064,8.242-56.031,23.213C8.247,36.297,0,56.199,0,77.365c0,13.467,3.464,26.715,9.97,38.416
			c0.083-0.486,0.145-0.977,0.237-1.459l0.486,2.805c-0.255-0.438-0.474-0.898-0.724-1.346c-1.319,7.58-2.017,15.329-2.017,23.071
			c0,18.07,3.537,35.598,10.525,52.1c6.734,15.949,16.388,30.258,28.676,42.551c12.297,12.283,26.605,21.945,42.555,28.67
			c16.496,6.996,34.032,10.539,52.103,10.539c7.865,0,15.747-0.719,23.44-2.082c-0.447-0.254-0.906-0.479-1.363-0.746l2.859,0.5
			c-0.496,0.098-0.992,0.154-1.496,0.246c11.855,6.707,25.277,10.271,38.982,10.271c21.166,0,41.055-8.232,56.021-23.209
			c14.971-14.957,23.209-34.861,23.209-56.025C283.465,188.146,279.984,174.863,273.434,163.115z M142.347,220.823
			c-47.557,0-68.827-23.375-68.827-40.9c0-8.988,6.633-15.283,15.777-15.283c20.35,0,15.08,29.223,53.05,29.223
			c19.435,0,30.169-10.557,30.169-21.357c0-6.498-3.203-13.695-16.004-16.852l-42.297-10.557
			c-34.062-8.541-40.244-26.956-40.244-44.269c0-35.939,33.84-49.434,65.618-49.434c29.271,0,63.782,16.178,63.782,37.736
			c0,9.242-8.002,14.617-17.143,14.617c-17.369,0-14.168-24.041-49.151-24.041c-17.36,0-26.979,7.863-26.979,19.113
			c0,11.223,13.713,14.809,25.615,17.527l31.31,6.943c34.291,7.636,42.984,27.661,42.984,46.522
			C210.008,199.019,187.594,220.823,142.347,220.823z"/>
	</g>
</g>
</svg>
