<?xml version="1.0" encoding="utf-8"?>
<!-- Generator: Adobe Illustrator 16.0.0, SVG Export Plug-In . SVG Version: 6.00 Build 0)  -->
<!DOCTYPE svg PUBLIC "-//W3C//DTD SVG 1.1//EN" "http://www.w3.org/Graphics/SVG/1.1/DTD/svg11.dtd">
<svg version="1.1" id="Layer_1" xmlns="http://www.w3.org/2000/svg" xmlns:xlink="http://www.w3.org/1999/xlink" x="0px" y="0px"
	 width="290px" height="285.45px" viewBox="-3.268 -3.216 290 285.45" enable-background="new -3.268 -3.216 290 285.45"
	 xml:space="preserve">
<g>
	<rect x="25.555" y="45.511" fill="#FFFFFF" width="203.036" height="124.027"/>
	<path fill="#789F33" d="M267.475,2.714H15.99C7.158,2.714,0,9.872,0,18.704v175.799c0,8.832,7.158,15.99,15.99,15.99h55.463v65.812
		l69.301-65.812h126.721c8.832,0,15.99-7.158,15.99-15.99V18.704C283.465,9.872,276.307,2.714,267.475,2.714z M176.953,67.587
		c8.309,0,15.045,6.735,15.045,15.041c0,8.309-6.736,15.043-15.045,15.043c-8.307,0-15.039-6.734-15.039-15.043
		C161.914,74.323,168.646,67.587,176.953,67.587z M104.832,67.587c8.307,0,15.039,6.735,15.039,15.041
		c0,8.309-6.732,15.043-15.039,15.043c-8.309,0-15.045-6.734-15.045-15.043C89.787,74.323,96.523,67.587,104.832,67.587z
		 M217.182,125.709c0,0-71.514,65.569-147.139-2.183v-14.22c0,0,73.57,51.475,147.139-3.174V125.709z"/>
</g>
</svg>
