<?xml version="1.0" encoding="utf-8"?>
<!-- Generator: Adobe Illustrator 16.0.0, SVG Export Plug-In . SVG Version: 6.00 Build 0)  -->
<!DOCTYPE svg PUBLIC "-//W3C//DTD SVG 1.1//EN" "http://www.w3.org/Graphics/SVG/1.1/DTD/svg11.dtd">
<svg version="1.1" id="Layer_1" xmlns="http://www.w3.org/2000/svg" xmlns:xlink="http://www.w3.org/1999/xlink" x="0px" y="0px"
	 width="290px" height="285.45px" viewBox="-3.268 -3.216 290 285.45" enable-background="new -3.268 -3.216 290 285.45"
	 xml:space="preserve">
<rect x="25.96" y="31.685" fill="#FFFFFF" width="231.543" height="215.649"/>
<g>
	<g>
		<path fill="#FFC917" d="M247.646-1.99H35.819c-19.655,0-35.588,15.932-35.588,35.587v211.825
			c0,19.657,15.933,35.587,35.588,35.587h211.826c19.653,0,35.589-15.93,35.589-35.587V33.597
			C283.234,13.942,267.299-1.99,247.646-1.99z M232.822,191.832c-2.352,1.959-8.332,4.116-15.684,5.586
			c-3.824,0.883-7.548,1.96-8.234,2.549c-0.685,0.489-1.765,3.138-2.352,5.881l-1.176,4.804l-10-0.588
			c-13.431-0.882-18.333,0.393-28.33,7.156c-12.548,8.627-16.37,10.097-26.662,10.097c-10.393,0-13.137-1.077-26.468-9.802
			c-4.805-3.139-10.98-6.275-13.527-6.96c-4.216-0.98-18.234-0.884-23.233,0.295c-0.883,0.194-1.862-1.179-2.744-4.119
			c-1.864-6.371-2.55-7.253-5.686-8.039c-11.861-2.743-16.175-4.116-19.115-5.881l-3.333-2.06l6.567-2.154
			c3.627-1.275,8.724-3.432,11.272-4.902c6.078-3.529,16.467-14.311,20.781-21.37c9.019-15.096,7.451-20.684-7.254-26.172
			c-4.508-1.764-9.019-4.02-9.997-5.098c-1.667-1.862-1.667-2.058,0.587-3.822c2.745-2.256,3.726-2.256,8.234-0.393
			c4.116,1.667,10.783,1.96,13.527,0.393c1.864-0.981,1.961-1.666,1.275-16.861c-0.49-11.176-0.294-17.646,0.589-21.763
			c3.235-15.781,16.762-29.799,33.131-34.308c7.646-2.158,24.312-1.863,32.154,0.588c17.057,5.293,29.702,19.507,31.858,35.878
			c0.491,3.628,0.589,13.135,0.197,20.978c-0.589,13.919-0.492,14.409,1.47,15.489c2.843,1.47,8.43,1.371,12.646-0.393
			c4.605-1.96,6.47-1.863,9.214,0.393l2.254,1.764l-2.549,2.353c-1.373,1.275-5.487,3.43-9.019,4.706
			c-14.704,5.098-16.369,10.979-7.743,25.781c7.352,12.645,19.508,22.644,32.447,26.858
			C232.92,190.262,233.9,190.949,232.822,191.832z"/>
	</g>
</g>
</svg>
