<?xml version="1.0" encoding="utf-8"?>
<!-- Generator: Adobe Illustrator 16.0.0, SVG Export Plug-In . SVG Version: 6.00 Build 0)  -->
<!DOCTYPE svg PUBLIC "-//W3C//DTD SVG 1.1//EN" "http://www.w3.org/Graphics/SVG/1.1/DTD/svg11.dtd">
<svg version="1.1" id="Layer_1" xmlns="http://www.w3.org/2000/svg" xmlns:xlink="http://www.w3.org/1999/xlink" x="0px" y="0px"
	 width="290px" height="285.45px" viewBox="-3.268 -3.216 290 285.45" enable-background="new -3.268 -3.216 290 285.45"
	 xml:space="preserve">
<g>
	<path fill="#FFFFFF" d="M283.465,247.227c0,18.785-15.229,34.016-34.016,34.016H34.016C15.229,281.242,0,266.012,0,247.227V31.792
		C0,13.006,15.229-2.223,34.016-2.223h215.434c18.786,0,34.016,15.229,34.016,34.016V247.227z"/>
	<path fill="#789F33" d="M248.254,194.467c0-2.82-2.123-7.262-3.591-8.586c-7.154-6.463-20.403-9.168-34.568-17.09
		c-14.182-7.924-15.43-5.426-17.929-4.178c-2.515,1.25-13.306,18.104-18.496,23.49c-3.297,3.436-8.038,2.93-9.853,2.379
		c-40.755-13.264-73.353-64.65-73.353-64.65c-3.768-3.746,0-7.879,0-7.879c7.215-7.375,10.415-10.732,14.57-16.272
		c7.512-10.03-14.165-47.096-17.066-55.018c-2.929-7.921-18.771-4.994-18.771-4.994C38.226,46.39,30.73,87.396,37.522,103.358
		c41.517,97.809,139.905,162.369,194.993,122.607c0,0,0,0,0,0.004C232.516,225.969,248.254,217.489,248.254,194.467z"/>
</g>
</svg>
