<?xml version="1.0" encoding="utf-8"?>
<!-- Generator: Adobe Illustrator 16.0.0, SVG Export Plug-In . SVG Version: 6.00 Build 0)  -->
<!DOCTYPE svg PUBLIC "-//W3C//DTD SVG 1.1//EN" "http://www.w3.org/Graphics/SVG/1.1/DTD/svg11.dtd">
<svg version="1.1" id="Layer_1" xmlns="http://www.w3.org/2000/svg" xmlns:xlink="http://www.w3.org/1999/xlink" x="0px" y="0px"
	 width="290px" height="285.45px" viewBox="-3.268 -3.216 290 285.45" enable-background="new -3.268 -3.216 290 285.45"
	 xml:space="preserve">
<rect x="61.486" y="23.358" fill="#FFFFFF" width="160.492" height="232.303"/>
<path fill="#27497E" d="M0-2.489v283.996h283.465V-2.489H0z M164.041,222.57c-38.586,0.662-53.201-27.488-53.201-47.307v-57.87
	H92.91V94.515c26.876-9.693,33.335-33.931,34.853-47.742c0.105-0.947,0.853-1.321,1.278-1.321c0.417,0,25.941,0,25.941,0v45.123
	h35.445v26.818h-35.57v55.142c0.115,7.494,2.869,17.834,17.049,17.457c4.697-0.117,10.996-1.484,14.289-3.055l8.52,25.254
	C191.52,216.896,177.062,222.347,164.041,222.57z"/>
</svg>
