<?xml version="1.0" encoding="utf-8"?>
<!-- Generator: Adobe Illustrator 16.0.0, SVG Export Plug-In . SVG Version: 6.00 Build 0)  -->
<!DOCTYPE svg PUBLIC "-//W3C//DTD SVG 1.1//EN" "http://www.w3.org/Graphics/SVG/1.1/DTD/svg11.dtd">
<svg version="1.1" id="Layer_1" xmlns="http://www.w3.org/2000/svg" xmlns:xlink="http://www.w3.org/1999/xlink" x="0px" y="0px"
	 width="290px" height="285.45px" viewBox="-3.268 -3.216 290 285.45" enable-background="new -3.268 -3.216 290 285.45"
	 xml:space="preserve">
<g>
	<path fill="#FFFFFF" d="M283.465,247.226c0,18.787-15.229,34.016-34.016,34.016H34.016C15.229,281.241,0,266.013,0,247.226V31.793
		C0,13.008,15.229-2.223,34.016-2.223h215.434c18.786,0,34.016,15.23,34.016,34.016V247.226z"/>
	<path fill="#DE2626" d="M233.154,79.644h-70.93l22.979-22.982c2.746-2.745,2.746-7.196,0-9.944c-2.738-2.745-7.198-2.745-9.943,0
		l-32.925,32.927h-1.21l-32.92-32.927c-2.748-2.745-7.207-2.745-9.952,0c-2.746,2.748-2.746,7.202,0,9.944l22.983,22.982h-70.93
		c-11.652,0-21.097,9.444-21.097,21.097v112.526c0,11.646,9.444,21.096,21.097,21.096h182.848c11.656,0,21.1-9.449,21.1-21.096
		V100.741C254.254,89.089,244.811,79.644,233.154,79.644z M190.957,199.2c0,7.766-6.295,14.066-14.064,14.066H71.404
		c-7.767,0-14.062-6.303-14.062-14.066V121.84c0-7.768,6.296-14.066,14.062-14.066h105.488c7.771,0,14.064,6.302,14.064,14.066
		V199.2z M226.119,199.2c-7.765,0-14.062-6.301-14.062-14.062c0-7.777,6.298-14.068,14.062-14.068
		c7.766,0,14.066,6.293,14.066,14.068C240.188,192.9,233.887,199.2,226.119,199.2z M226.119,149.97
		c-7.765,0-14.062-6.293-14.062-14.068c0-7.77,6.298-14.064,14.062-14.064c7.766,0,14.066,6.295,14.066,14.064
		C240.188,143.677,233.887,149.97,226.119,149.97z"/>
</g>
</svg>
