<?xml version="1.0" encoding="utf-8"?>
<!-- Generator: Adobe Illustrator 16.0.0, SVG Export Plug-In . SVG Version: 6.00 Build 0)  -->
<!DOCTYPE svg PUBLIC "-//W3C//DTD SVG 1.1//EN" "http://www.w3.org/Graphics/SVG/1.1/DTD/svg11.dtd">
<svg version="1.1" id="Layer_1" xmlns="http://www.w3.org/2000/svg" xmlns:xlink="http://www.w3.org/1999/xlink" x="0px" y="0px"
	 width="290px" height="285.45px" viewBox="-3.268 -3.216 290 285.45" enable-background="new -3.268 -3.216 290 285.45"
	 xml:space="preserve">
<g>
	<path fill="#FFFFFF" d="M283.465,247.226c0,18.786-15.229,34.017-34.016,34.017H34.016C15.229,281.242,0,266.012,0,247.226V31.792
		C0,13.006,15.229-2.223,34.016-2.223h215.434c18.786,0,34.016,15.229,34.016,34.016V247.226z"/>
	<path fill="#27497E" d="M256.815,68.126c-8.468,3.755-17.569,6.293-27.122,7.436c9.749-5.845,17.237-15.098,20.763-26.126
		c-9.125,5.413-19.23,9.343-29.985,11.46c-8.615-9.178-20.888-14.912-34.469-14.912c-26.079,0-47.223,21.142-47.223,47.22
		c0,3.702,0.419,7.305,1.224,10.763c-39.246-1.97-74.042-20.77-97.331-49.339c-4.065,6.973-6.394,15.085-6.394,23.739
		c0,16.384,8.336,30.838,21.007,39.305c-7.74-0.246-15.022-2.369-21.388-5.904c-0.005,0.195-0.005,0.392-0.005,0.592
		c0,22.881,16.277,41.964,37.88,46.305c-3.963,1.076-8.134,1.655-12.441,1.655c-3.042,0-6-0.296-8.885-0.849
		c6.01,18.76,23.449,32.414,44.113,32.794c-16.162,12.666-36.523,20.215-58.647,20.215c-3.812,0-7.57-0.224-11.264-0.661
		c20.897,13.4,45.719,21.218,72.386,21.218c86.857,0,134.354-71.955,134.354-134.355c0-2.049-0.046-4.084-0.136-6.109
		C242.479,85.911,250.485,77.595,256.815,68.126z"/>
</g>
</svg>
