<?xml version="1.0" encoding="utf-8"?>
<!-- Generator: Adobe Illustrator 16.0.0, SVG Export Plug-In . SVG Version: 6.00 Build 0)  -->
<!DOCTYPE svg PUBLIC "-//W3C//DTD SVG 1.1//EN" "http://www.w3.org/Graphics/SVG/1.1/DTD/svg11.dtd">
<svg version="1.1" id="Layer_1" xmlns="http://www.w3.org/2000/svg" xmlns:xlink="http://www.w3.org/1999/xlink" x="0px" y="0px"
	 width="290px" height="285.45px" viewBox="-3.268 -3.216 290 285.45" enable-background="new -3.268 -3.216 290 285.45"
	 xml:space="preserve">
<g>
	<path fill="#789F33" d="M141.73,1.045C65.26,1.045,3.268,63.036,3.268,139.508c0,44.786,26.983,82.143,26.983,82.143
		l-16.894,50.404l52.062-16.988c0,0,33.928,22.907,76.311,22.907c76.471,0,138.467-61.994,138.467-138.466
		S218.201,1.045,141.73,1.045z"/>
	<path fill="#FFFFFF" d="M78.96,67.744c0,0,4.455-2.821,6.777-2.821c2.321,0,12.985,0,12.985,0s3.482,0.605,5.081,4.233
		c1.601,3.63,12.55,29.354,13.362,31.337c0.815,1.985,2.938,6.896-0.468,11.293c-3.41,4.398-10.542,12.608-10.542,12.608
		s-2.821,2.542-0.375,6.589c2.446,4.045,11.052,17.396,22.304,27.479c11.255,10.085,25.033,17.504,31.902,19.763
		c6.867,2.257,8.373-0.752,11.011-4.141c2.634-3.388,10.82-13.739,10.82-13.739s2.824-4.14,8.376-1.601
		c5.553,2.541,32.56,15.624,32.56,15.624s3.292,0.564,3.48,4.233c0.189,3.671,2.448,14.651-7.341,25.218
		c-9.787,10.566-30.604,15.457-40.459,12.701c-9.859-2.755-42.447-11.279-63.702-31.102c-21.255-19.82-38.466-40.683-45.506-56.071
		c-7.041-15.384-6.651-24.511-6.259-28.816C63.357,96.23,65.619,76.293,78.96,67.744z"/>
</g>
</svg>
