<?xml version="1.0" encoding="utf-8"?>
<!-- Generator: Adobe Illustrator 16.0.0, SVG Export Plug-In . SVG Version: 6.00 Build 0)  -->
<!DOCTYPE svg PUBLIC "-//W3C//DTD SVG 1.1//EN" "http://www.w3.org/Graphics/SVG/1.1/DTD/svg11.dtd">
<svg version="1.1" id="Layer_1" xmlns="http://www.w3.org/2000/svg" xmlns:xlink="http://www.w3.org/1999/xlink" x="0px" y="0px"
	 width="290px" height="285.45px" viewBox="-3.268 -3.216 290 285.45" enable-background="new -3.268 -3.216 290 285.45"
	 xml:space="preserve">
<g>
	<path fill="#FFFFFF" d="M283.465,247.227c0,18.785-15.229,34.016-34.016,34.016H34.016C15.229,281.242,0,266.012,0,247.227V31.792
		C0,13.005,15.229-2.223,34.016-2.223h215.434c18.786,0,34.016,15.229,34.016,34.016V247.227z"/>
	<path id="path1873"  fill="#010202" d="M177.723,217.656l-31.031-73.09
		c-12.295,24.123-25.921,49.193-37.578,73.053c-0.064,0.125-5.634,0.051-5.636-0.023c-17.819-41.578-36.29-82.882-54.193-124.429
		c-4.152-10.156-18.69-26.496-28.638-26.401c-0.004-1.182-0.057-3.812-0.075-5.404l61.338-0.03l-0.044,5.335
		c-7.202,0.335-19.646,4.929-16.427,12.882c8.648,18.664,39.259,90.979,47.531,109.339c5.773-11.299,21.896-41.418,28.531-54.154
		c-5.203-10.676-22.398-50.54-27.556-60.582c-3.888-6.545-13.645-7.348-21.162-7.46c0.006-1.681,0.094-2.969,0.057-5.266
		l53.924,0.166v4.896c-7.302,0.203-14.211,2.917-11.085,9.895c7.255,15.059,11.485,25.775,18.154,39.701
		c2.134-4.078,13.022-26.438,18.223-38.244c3.141-7.84-1.548-10.785-14.688-11.14c0.174-1.289,0.057-3.881,0.169-5.114
		c16.769-0.064,42.085-0.123,46.569-0.191l0.025,5.096c-8.562,0.334-17.416,4.895-22.037,11.97l-22.428,46.507
		c2.463,6.158,24.02,54.052,26.293,59.362l46.365-107.001c-3.299-8.665-13.82-10.602-17.937-10.699
		c0.03-1.377,0.03-3.481,0.045-5.236l48.398,0.367l0.063,0.246l-0.084,4.602c-10.615,0.32-17.182,5.997-21.107,15.305
		c-9.646,21.787-39.132,90.79-58.807,135.763C182.869,217.698,177.734,217.664,177.723,217.656z"/>
</g>
</svg>
