<?xml version="1.0" encoding="utf-8"?>
<!-- Generator: Adobe Illustrator 16.0.0, SVG Export Plug-In . SVG Version: 6.00 Build 0)  -->
<!DOCTYPE svg PUBLIC "-//W3C//DTD SVG 1.1//EN" "http://www.w3.org/Graphics/SVG/1.1/DTD/svg11.dtd">
<svg version="1.1" id="Layer_1" xmlns="http://www.w3.org/2000/svg" xmlns:xlink="http://www.w3.org/1999/xlink" x="0px" y="0px"
	 width="290px" height="285.45px" viewBox="-3.268 -3.216 290 285.45" enable-background="new -3.268 -3.216 290 285.45"
	 xml:space="preserve">
<g>
	<path fill="#FFFFFF" d="M283.465,247.226c0,18.787-15.229,34.016-34.016,34.016H34.016C15.229,281.241,0,266.013,0,247.226V31.793
		C0,13.007,15.229-2.222,34.016-2.222h215.434c18.786,0,34.016,15.229,34.016,34.016V247.226z"/>
	<g>
		<polygon fill="#DE2626" points="209.332,108.316 209.332,97.919 188.536,97.919 188.536,108.316 188.536,139.509 198.933,139.509 
			198.933,108.316 209.315,108.316 209.315,118.714 219.712,118.714 219.712,108.316 		"/>
		<rect x="105.363" y="25.136" fill="#DE2626" width="20.795" height="10.396"/>
		<rect x="74.125" y="160.302" fill="#DE2626" width="10.4" height="20.799"/>
		<polygon fill="#DE2626" points="105.319,222.689 105.319,201.892 94.924,201.892 94.924,181.101 84.525,181.101 84.525,201.892 
			94.921,201.892 94.921,222.689 		"/>
		<polygon fill="#DE2626" points="209.315,222.689 198.933,222.689 198.933,243.486 115.76,243.486 115.76,222.689 105.363,222.689 
			105.363,243.486 105.319,243.486 105.319,253.884 105.363,253.884 115.76,253.884 198.933,253.884 209.297,253.884 
			209.332,253.884 209.332,222.689 219.712,222.689 219.712,191.497 209.315,191.497 		"/>
		<polygon fill="#DE2626" points="63.75,129.111 84.504,129.111 84.504,118.714 63.75,118.714 63.709,118.714 53.353,118.714 
			53.353,149.906 63.709,149.906 63.709,160.302 74.104,160.302 74.104,149.906 63.75,149.906 		"/>
		<polygon fill="#DE2626" points="157.283,129.111 167.686,129.111 167.686,97.919 188.521,97.919 188.521,87.518 157.329,87.518 
			157.329,97.919 157.283,97.919 		"/>
		<polygon fill="#DE2626" points="136.576,87.518 157.283,87.518 157.283,77.122 136.576,77.122 136.576,35.531 126.18,35.531 
			126.18,129.111 136.576,129.111 		"/>
		<polygon fill="#DE2626" points="94.924,149.906 105.319,149.906 105.319,35.531 94.924,35.531 94.924,129.111 84.525,129.111 
			84.525,139.509 94.924,139.509 		"/>
		<rect x="219.712" y="118.714" fill="#DE2626" width="10.4" height="72.783"/>
	</g>
</g>
</svg>
