<?xml version="1.0" encoding="utf-8"?>
<!-- Generator: Adobe Illustrator 16.0.0, SVG Export Plug-In . SVG Version: 6.00 Build 0)  -->
<!DOCTYPE svg PUBLIC "-//W3C//DTD SVG 1.1//EN" "http://www.w3.org/Graphics/SVG/1.1/DTD/svg11.dtd">
<svg version="1.1" id="Layer_1" xmlns="http://www.w3.org/2000/svg" xmlns:xlink="http://www.w3.org/1999/xlink" x="0px" y="0px"
	 width="290px" height="285.45px" viewBox="-3.268 -3.216 290 285.45" enable-background="new -3.268 -3.216 290 285.45"
	 xml:space="preserve">
<g>
	<path fill="#FFFFFF" d="M283.465,247.226c0,18.787-15.229,34.016-34.016,34.016H34.016C15.229,281.241,0,266.013,0,247.226V31.793
		C0,13.007,15.229-2.223,34.016-2.223h215.434c18.786,0,34.016,15.229,34.016,34.016V247.226z"/>
	<g>
		<path fill-rule="evenodd" clip-rule="evenodd" fill="#2E2014" d="M188.743,107.632h11.159V45.6h-11.159v47.282
			c-8.029,9.354-10.053,2.364-10.053-1.148V45.6h-11.16v48.335c0,7.893,1.972,12.922,6.99,13.721
			c3.343,0.53,8.17,0.004,14.223-7.394V107.632L188.743,107.632z M98.546,107.632h12.582V74.342l14.962-49.617h-12.581
			l-8.683,31.177l-8.684-31.177H83.561l14.985,49.692V107.632L98.546,107.632z M142.271,44.899L142.271,44.899
			c9.182,0,16.693,7.512,16.693,16.692c0,10.693,0,19.677,0,29.347c0,9.182-7.512,16.694-16.693,16.694l0,0
			c-9.181,0-16.693-7.513-16.693-16.694V61.591C125.577,52.41,133.09,44.899,142.271,44.899L142.271,44.899z M136.938,92.444
			c0,2.933,2.399,5.333,5.332,5.333l0,0c2.933,0,5.331-2.4,5.331-5.333c0-10.714,0-21.396,0-32.251c0-2.931-2.398-5.329-5.331-5.329
			l0,0c-2.933,0-5.332,2.398-5.332,5.329C136.938,71.388,136.938,80.806,136.938,92.444L136.938,92.444z"/>
		<g>
			<path fill-rule="evenodd" clip-rule="evenodd" fill="#DE2626" d="M204.755,177.365c-2.933,0-5.332,2.398-5.332,5.33v8.742h10.664
				v-8.742C210.087,179.763,207.687,177.365,204.755,177.365z"/>
			<path fill-rule="evenodd" clip-rule="evenodd" fill="#DE2626" d="M237.549,183.921c-0.292-20.74-2.265-41.584-11.104-49.287
				c-3.411-2.97-6.653-4.835-19.619-5.995c-16.225-1.449-38.199-1.652-54.811-1.679c-6.854-0.011-13.713-0.011-20.568,0
				c-16.61,0.026-38.584,0.229-54.81,1.679c-12.966,1.16-16.208,3.025-19.619,5.995c-8.991,7.833-10.877,29.269-11.117,50.359
				c-0.045,3.93-0.043,7.867,0.006,11.797c0.267,20.916,2.196,42.055,11.111,49.822c3.411,2.975,6.653,4.836,19.619,5.994
				c16.226,1.449,38.199,1.652,54.81,1.68c6.855,0.012,13.714,0.012,20.568,0c16.611-0.027,38.586-0.23,54.811-1.68
				c12.966-1.158,16.208-3.02,19.619-5.994c8.839-7.699,10.812-28.547,11.104-49.285C237.61,192.863,237.61,188.386,237.549,183.921
				z M102.476,159.058H89.292v71.074H76.71v-71.074H63.527v-11.832H76.71h12.582h13.184V159.058z M136.438,230.132H125.28v-7.367
				c-6.053,7.396-10.88,7.922-14.225,7.393c-5.017-0.799-6.988-5.828-6.988-13.721v-48.336h11.159v46.137
				c0,3.51,2.023,10.5,10.054,1.145v-47.281h11.158V230.132z M169.883,230.132c-6.733,0.777-10.225-3.975-12.347-6.59v6.59h-11.159
				v-82.906h11.159v26.633c1.458-1.727,5.938-6.457,11.299-6.457c6.554,0,10.261,4.193,10.261,14.684c0,10.486,0,31.811,0,31.811
				S181.152,228.833,169.883,230.132z M221.448,200.874h-2.623h-8.738h-10.664v14.07c0,2.932,2.399,5.332,5.332,5.332
				c2.932,0,5.332-2.4,5.332-5.332v-6.902h11.361v5.398c0,9.18-7.512,16.691-16.693,16.691c-9.181,0-16.692-7.512-16.692-16.691
				v-29.348c0-9.182,7.512-16.691,16.692-16.691c9.182,0,16.693,7.51,16.693,16.691V200.874z"/>
			<path fill-rule="evenodd" clip-rule="evenodd" fill="#DE2626" d="M163.153,177.365c-2.289-0.152-4.197,1.277-5.617,2.938v37.006
				c0.577,0.648,2.742,2.869,5.355,2.795c3.058-0.088,4.894-1.748,4.894-6.469c0-4.719,0.088-29.277,0.088-29.277
				S168.398,177.714,163.153,177.365z"/>
		</g>
	</g>
</g>
</svg>
